<?xml version="1.0" encoding="utf-8"?>
<!-- Generator: Adobe Illustrator 18.0.0, SVG Export Plug-In . SVG Version: 6.00 Build 0)  -->
<!DOCTYPE svg PUBLIC "-//W3C//DTD SVG 1.1//EN" "http://www.w3.org/Graphics/SVG/1.1/DTD/svg11.dtd">
<svg version="1.1" id="Layer_1" xmlns="http://www.w3.org/2000/svg" xmlns:xlink="http://www.w3.org/1999/xlink" x="0px" y="0px"
	 width="792px" height="1224px" viewBox="0 0 792 1224" enable-background="new 0 0 792 1224" xml:space="preserve">
<g>
	<g>
		<path fill="none" stroke="#A7A7A8" stroke-width="13" stroke-miterlimit="10" d="M551.2,582.2c-48.6,0-55.1,48.6-55.1,48.6h103.1
			C599.1,630.8,599.1,582.2,551.2,582.2z"/>
		<path fill="none" stroke="#A7A7A8" stroke-width="13" stroke-miterlimit="10" d="M317.7,630.8H226v83.6h81.1c1.7,0,3.2,0,5.7,0
			c13,0,37.3-4,37.3-40.6C350.1,630,317.7,630.8,317.7,630.8z"/>
		<path fill="none" stroke="#A7A7A8" stroke-width="13" stroke-miterlimit="10" d="M402.8,244C195.2,244,27.3,411.9,27.3,619.5
			S195.2,995,402.8,995s375.5-167.9,375.5-375.5C779.1,412.8,610.3,244,402.8,244z M482.3,475.1h129V514h-129V475.1z M416.6,677.8
			c0,95.7-99.7,92.4-99.7,92.4h-91.6h-2.5h-69V456.5h69h2.5h91.6c49.5,0,88.4,27.6,88.4,83.5c0,56-47.8,60-47.8,60
			C421.5,600.1,416.6,677.8,416.6,677.8z M659.1,672.3H496.9c0,58.3,55.1,54.3,55.1,54.3c51.8,0,50.3-34.1,50.3-34.1h55.1
			c0,89.2-107.1,83.5-107.1,83.5c-129,0-120.8-120-120.8-120s0-120.8,120.8-120.8C676.8,536.8,659.1,672.3,659.1,672.3z"/>
		<path fill="none" stroke="#A7A7A8" stroke-width="13" stroke-miterlimit="10" d="M339.6,544.9c0-32.4-21.9-32.4-21.9-32.4h-11.4
			h-79.5v69.7h85.9C326.6,582.2,339.6,577.4,339.6,544.9z"/>
	</g>
	<g>
		<g>
			<path fill="none" stroke="#6D6E70" stroke-width="13" stroke-miterlimit="10" d="M533.3,565.2c-48.6,0-55.1,48.6-55.1,48.6h103.1
				C581.2,613.8,582,565.2,533.3,565.2z"/>
			<path fill="none" stroke="#6D6E70" stroke-width="13" stroke-miterlimit="10" d="M299.8,613.8h-91.6v83.5h81.1c1.7,0,3.2,0,5.7,0
				c13,0,37.3-4,37.3-40.6C333.1,613,299.8,613.8,299.8,613.8z"/>
			<path fill="none" stroke="#6D6E70" stroke-width="13" stroke-miterlimit="10" d="M385.8,227C178.2,227,10.3,394.9,10.3,602.5
				s167.9,375.5,375.5,375.5s375.5-167.9,375.5-375.5C761.2,395.7,593.4,227,385.8,227z M465.3,458.1h129V497h-129V458.1z
				 M399.6,660.9c0,95.7-99.7,92.4-99.7,92.4h-91.6h-2.5h-69V439.5h69h2.5h91.6c49.5,0,88.4,27.6,88.4,83.5s-47.8,60-47.8,60
				C403.6,583,399.6,660.9,399.6,660.9z M641.2,655.2H479c0,58.3,55.1,54.3,55.1,54.3c51.8,0,50.3-34.1,50.3-34.1h55.1
				c0,89.2-107.1,83.5-107.1,83.5c-129,0-120.8-120-120.8-120s0-120.8,120.8-120.8C659.1,518.9,641.2,655.2,641.2,655.2z"/>
			<path fill="none" stroke="#6D6E70" stroke-width="13" stroke-miterlimit="10" d="M322.6,527.9c0-32.4-21.9-32.4-21.9-32.4h-11.4
				h-79.5v69.7h85.9C308.7,565.2,322.6,560.3,322.6,527.9z"/>
		</g>
	</g>
</g>
</svg>
