<?xml version="1.0" encoding="utf-8"?>
<!-- Generator: Adobe Illustrator 18.0.0, SVG Export Plug-In . SVG Version: 6.00 Build 0)  -->
<!DOCTYPE svg PUBLIC "-//W3C//DTD SVG 1.1//EN" "http://www.w3.org/Graphics/SVG/1.1/DTD/svg11.dtd">
<svg version="1.1" id="Layer_1" xmlns="http://www.w3.org/2000/svg" xmlns:xlink="http://www.w3.org/1999/xlink" x="0px" y="0px"
	 width="792px" height="1224px" viewBox="0 0 792 1224" enable-background="new 0 0 792 1224" xml:space="preserve">
<g>
	<g>
		<polygon fill="none" stroke="#A7A7A8" stroke-width="13" stroke-miterlimit="10" points="553.3,535.1 553.3,475.8 553.3,467 
			544.5,467 485.4,467 485.4,535.1 		"/>
		<path fill="none" stroke="#A7A7A8" stroke-width="13" stroke-miterlimit="10" d="M398.1,693.3c39.1,0,71.2-32,71.2-71.2
			c0-15.2-4.8-29.6-13.6-41.6c-12.8-17.6-33.6-29.6-57.6-29.6c-24,0-44.7,12.1-57.6,29.6c-8.8,12.1-13.6,25.5-13.6,41.6
			C327,661.3,359,693.3,398.1,693.3z"/>
		<path fill="none" stroke="#A7A7A8" stroke-width="13" stroke-miterlimit="10" d="M400.6,245.6c-204.7,0-371,166.3-371,371
			c0,204.7,166.3,371,371,371s371-166.3,371-371C771.6,411.2,605.3,245.6,400.6,245.6z M599.7,580.6v165.5
			c0,43.2-35.1,77.5-78.4,77.5H273.4c-43.2,0-78.4-35.1-78.4-77.5V580.6v-82.3c0-43.2,35.1-78.4,78.4-78.4h247.8
			c43.2,0,78.4,35.1,78.4,78.4V580.6z"/>
		<path fill="none" stroke="#A7A7A8" stroke-width="13" stroke-miterlimit="10" d="M508.6,622.2c0,60.8-49.5,110.3-110.3,110.3
			S288,683,288,622.2c0-14.4,3.2-28.8,8-41.6h-60v165.5c0,21.6,17.6,38.4,38.4,38.4h247.8c21.6,0,38.4-17.6,38.4-38.4V580.6h-60
			C505.3,593.4,508.6,607,508.6,622.2z"/>
	</g>
	<g>
		<g>
			<polygon fill="none" stroke="#6D6E70" stroke-width="13" stroke-miterlimit="10" points="536.5,518.2 536.5,458.3 536.5,449.5 
				527.8,449.5 467.8,450.3 468.5,518.2 			"/>
			<path fill="none" stroke="#6D6E70" stroke-width="13" stroke-miterlimit="10" d="M381.4,675.7c39.1,0,71.2-32,71.2-71.2
				c0-15.2-4.8-29.6-13.6-41.6c-12.8-17.6-33.6-29.6-57.6-29.6c-24,0-44.7,12.1-57.6,29.6c-8.8,12.1-13.6,25.5-13.6,41.6
				C310.3,643.8,342.3,675.7,381.4,675.7z"/>
			<path fill="none" stroke="#6D6E70" stroke-width="13" stroke-miterlimit="10" d="M383,228C178.3,228,12,394.3,12,599
				s166.3,371,371,371s371-166.3,371-371S588.4,228,383,228z M582.9,563.9v165.5c0,43.2-35.1,77.5-78.4,77.5H256.7
				c-43.2,0-78.4-35.1-78.4-77.5V563.9v-82.3c0-43.2,35.1-78.4,78.4-78.4h247.8c43.2,0,78.4,35.1,78.4,78.4v82.3H582.9z"/>
			<path fill="none" stroke="#6D6E70" stroke-width="13" stroke-miterlimit="10" d="M491.7,605.3c0,60.8-49.5,110.3-110.3,110.3
				s-110.3-49.5-110.3-110.3c0-14.4,3.2-28.8,8-41.6h-60v165.5c0,21.6,17.6,38.4,38.4,38.4h247.8c21.6,0,38.4-17.6,38.4-38.4V563.9
				h-60C488.5,576.6,491.7,590.2,491.7,605.3z"/>
		</g>
	</g>
</g>
</svg>
