<?xml version="1.0" encoding="utf-8"?>
<!-- Generator: Adobe Illustrator 18.0.0, SVG Export Plug-In . SVG Version: 6.00 Build 0)  -->
<!DOCTYPE svg PUBLIC "-//W3C//DTD SVG 1.1//EN" "http://www.w3.org/Graphics/SVG/1.1/DTD/svg11.dtd">
<svg version="1.1" id="Layer_1" xmlns="http://www.w3.org/2000/svg" xmlns:xlink="http://www.w3.org/1999/xlink" x="0px" y="0px"
	 width="792px" height="1224px" viewBox="0 0 792 1224" enable-background="new 0 0 792 1224" xml:space="preserve">
<g>
	<g>
		<path fill="none" stroke="#A7A7A8" stroke-width="13" stroke-miterlimit="10" d="M400,240.4c-205.5,0-371.6,166.2-371.6,371.6
			S194.5,983.7,400,983.7s371.6-166.2,371.6-371.6C771.6,407.4,604.6,240.4,400,240.4z M498,611.3h-64.2c0,102.8,0,229.6,0,229.6
			h-95.5c0,0,0-125.2,0-229.6h-45.8v-81h45.8v-53c0-37.7,17.6-96.3,96.3-96.3h70.6v78.7c0,0-43.3,0-51.3,0s-20.1,4-20.1,21.6v48.2
			h73L498,611.3z"/>
	</g>
	<g>
		<path fill="none" stroke="#6D6E70" stroke-width="13" stroke-miterlimit="10" d="M382.3,223.6c-205.5,0-371.6,166.2-371.6,371.6
			s166.2,371.6,371.6,371.6S754,800.7,754,595.2C754.7,390.5,587.8,223.6,382.3,223.6z M481,594.4h-64.2c0,102.8,0,229.6,0,229.6
			h-95.5c0,0,0-125.2,0-229.6h-45.8v-81h45.8v-52.1c0-37.7,17.6-96.3,96.3-96.3h70.6v78.7c0,0-43.3,0-51.3,0s-20.1,4-20.1,21.6v48.2
			h73L481,594.4z"/>
	</g>
</g>
</svg>
