<?xml version="1.0" encoding="utf-8"?>
<!-- Generator: Adobe Illustrator 18.0.0, SVG Export Plug-In . SVG Version: 6.00 Build 0)  -->
<!DOCTYPE svg PUBLIC "-//W3C//DTD SVG 1.1//EN" "http://www.w3.org/Graphics/SVG/1.1/DTD/svg11.dtd">
<svg version="1.1" id="Layer_1" xmlns="http://www.w3.org/2000/svg" xmlns:xlink="http://www.w3.org/1999/xlink" x="0px" y="0px"
	 viewBox="1554.2 498.4 94.8 94.8" enable-background="new 1554.2 498.4 94.8 94.8" xml:space="preserve">
<g>
	<g opacity="0.4">
		<path fill="none" stroke="#A04A39" stroke-width="2.1278" stroke-miterlimit="10" d="M1622,543.2c-6,0-6.8,6-6.8,6h12.7
			C1627.9,549.2,1627.9,543.2,1622,543.2z"/>
		<path fill="none" stroke="#A04A39" stroke-width="2.1278" stroke-miterlimit="10" d="M1593.2,549.2h-11.3v10.3h10
			c0.2,0,0.4,0,0.7,0c1.6,0,4.6-0.5,4.6-5C1597.2,549.1,1593.2,549.2,1593.2,549.2z"/>
		<path fill="none" stroke="#A04A39" stroke-width="2.1278" stroke-miterlimit="10" d="M1603.7,501.5c-25.6,0-46.3,20.7-46.3,46.3
			c0,25.6,20.7,46.3,46.3,46.3c25.6,0,46.3-20.7,46.3-46.3C1650.1,522.3,1629.3,501.5,1603.7,501.5z M1613.5,530h15.9v4.8h-15.9V530
			z M1605.4,555c0,11.8-12.3,11.4-12.3,11.4h-11.3h-0.3h-8.5v-38.7h8.5h0.3h11.3c6.1,0,10.9,3.4,10.9,10.3c0,6.9-5.9,7.4-5.9,7.4
			C1606,545.4,1605.4,555,1605.4,555z M1635.3,554.3h-20c0,7.2,6.8,6.7,6.8,6.7c6.4,0,6.2-4.2,6.2-4.2h6.8c0,11-13.2,10.3-13.2,10.3
			c-15.9,0-14.9-14.8-14.9-14.8s0-14.9,14.9-14.9C1637.5,537.6,1635.3,554.3,1635.3,554.3z"/>
		<path fill="none" stroke="#A04A39" stroke-width="2.1278" stroke-miterlimit="10" d="M1595.9,538.6c0-4-2.7-4-2.7-4h-1.4h-9.8v8.6
			h10.6C1594.3,543.2,1595.9,542.6,1595.9,538.6z"/>
	</g>
	<g>
		<g>
			<path fill="none" stroke="#8C4647" stroke-width="2.1278" stroke-miterlimit="10" d="M1619.8,541.1c-6,0-6.8,6-6.8,6h12.7
				C1625.7,547.1,1625.8,541.1,1619.8,541.1z"/>
			<path fill="none" stroke="#8C4647" stroke-width="2.1278" stroke-miterlimit="10" d="M1591,547.1h-11.3v10.3h10
				c0.2,0,0.4,0,0.7,0c1.6,0,4.6-0.5,4.6-5C1595.1,547,1591,547.1,1591,547.1z"/>
			<path fill="none" stroke="#8C4647" stroke-width="2.1278" stroke-miterlimit="10" d="M1601.6,499.4c-25.6,0-46.3,20.7-46.3,46.3
				s20.7,46.3,46.3,46.3c25.6,0,46.3-20.7,46.3-46.3C1647.9,520.2,1627.2,499.4,1601.6,499.4z M1611.4,527.9h15.9v4.8h-15.9V527.9z
				 M1603.3,552.9c0,11.8-12.3,11.4-12.3,11.4h-11.3h-0.3h-8.5v-38.7h8.5h0.3h11.3c6.1,0,10.9,3.4,10.9,10.3s-5.9,7.4-5.9,7.4
				C1603.8,543.3,1603.3,552.9,1603.3,552.9z M1633.1,552.2h-20c0,7.2,6.8,6.7,6.8,6.7c6.4,0,6.2-4.2,6.2-4.2h6.8
				c0,11-13.2,10.3-13.2,10.3c-15.9,0-14.9-14.8-14.9-14.8s0-14.9,14.9-14.9C1635.3,535.4,1633.1,552.2,1633.1,552.2z"/>
			<path fill="none" stroke="#8C4647" stroke-width="2.1278" stroke-miterlimit="10" d="M1593.8,536.5c0-4-2.7-4-2.7-4h-1.4h-9.8
				v8.6h10.6C1592.1,541.1,1593.8,540.5,1593.8,536.5z"/>
		</g>
	</g>
</g>
</svg>
