<?xml version="1.0" encoding="utf-8"?>
<!-- Generator: Adobe Illustrator 18.0.0, SVG Export Plug-In . SVG Version: 6.00 Build 0)  -->
<!DOCTYPE svg PUBLIC "-//W3C//DTD SVG 1.1//EN" "http://www.w3.org/Graphics/SVG/1.1/DTD/svg11.dtd">
<svg version="1.1" id="Layer_1" xmlns="http://www.w3.org/2000/svg" xmlns:xlink="http://www.w3.org/1999/xlink" x="0px" y="0px"
	 viewBox="1691.8 498.2 95 95" enable-background="new 1691.8 498.2 95 95" xml:space="preserve">
<g>
	<g opacity="0.4">
		<polygon fill="none" stroke="#A04A39" stroke-width="2.1778" stroke-miterlimit="10" points="1760.6,537.7 1760.6,530.3 
			1760.6,529.2 1759.5,529.2 1752.1,529.2 1752.1,537.7 		"/>
		<path fill="none" stroke="#A04A39" stroke-width="2.1778" stroke-miterlimit="10" d="M1741.2,557.5c4.9,0,8.9-4,8.9-8.9
			c0-1.9-0.6-3.7-1.7-5.2c-1.6-2.2-4.2-3.7-7.2-3.7c-3,0-5.6,1.5-7.2,3.7c-1.1,1.5-1.7,3.2-1.7,5.2
			C1732.3,553.5,1736.3,557.5,1741.2,557.5z"/>
		<path fill="none" stroke="#A04A39" stroke-width="2.1778" stroke-miterlimit="10" d="M1741.5,501.5c-25.6,0-46.4,20.8-46.4,46.4
			c0,25.6,20.8,46.4,46.4,46.4c25.6,0,46.4-20.8,46.4-46.4C1787.9,522.2,1767.1,501.5,1741.5,501.5z M1766.4,543.4v20.7
			c0,5.4-4.4,9.7-9.8,9.7h-31c-5.4,0-9.8-4.4-9.8-9.7v-20.7v-10.3c0-5.4,4.4-9.8,9.8-9.8h31c5.4,0,9.8,4.4,9.8,9.8V543.4z"/>
		<path fill="none" stroke="#A04A39" stroke-width="2.1778" stroke-miterlimit="10" d="M1755,548.6c0,7.6-6.2,13.8-13.8,13.8
			c-7.6,0-13.8-6.2-13.8-13.8c0-1.8,0.4-3.6,1-5.2h-7.5v20.7c0,2.7,2.2,4.8,4.8,4.8h31c2.7,0,4.8-2.2,4.8-4.8v-20.7h-7.5
			C1754.6,545,1755,546.7,1755,548.6z"/>
	</g>
	<g>
		<g>
			<polygon fill="none" stroke="#8C4647" stroke-width="2.1778" stroke-miterlimit="10" points="1758.5,535.6 1758.5,528.1 
				1758.5,527 1757.4,527 1749.9,527.1 1750,535.6 			"/>
			<path fill="none" stroke="#8C4647" stroke-width="2.1778" stroke-miterlimit="10" d="M1739.1,555.3c4.9,0,8.9-4,8.9-8.9
				c0-1.9-0.6-3.7-1.7-5.2c-1.6-2.2-4.2-3.7-7.2-3.7c-3,0-5.6,1.5-7.2,3.7c-1.1,1.5-1.7,3.2-1.7,5.2
				C1730.2,551.3,1734.2,555.3,1739.1,555.3z"/>
			<path fill="none" stroke="#8C4647" stroke-width="2.1778" stroke-miterlimit="10" d="M1739.3,499.3c-25.6,0-46.4,20.8-46.4,46.4
				s20.8,46.4,46.4,46.4c25.6,0,46.4-20.8,46.4-46.4S1765,499.3,1739.3,499.3z M1764.3,541.3v20.7c0,5.4-4.4,9.7-9.8,9.7h-31
				c-5.4,0-9.8-4.4-9.8-9.7v-20.7V531c0-5.4,4.4-9.8,9.8-9.8h31c5.4,0,9.8,4.4,9.8,9.8V541.3z"/>
			<path fill="none" stroke="#8C4647" stroke-width="2.1778" stroke-miterlimit="10" d="M1752.9,546.5c0,7.6-6.2,13.8-13.8,13.8
				s-13.8-6.2-13.8-13.8c0-1.8,0.4-3.6,1-5.2h-7.5v20.7c0,2.7,2.2,4.8,4.8,4.8h31c2.7,0,4.8-2.2,4.8-4.8v-20.7h-7.5
				C1752.5,542.9,1752.9,544.6,1752.9,546.5z"/>
		</g>
	</g>
</g>
</svg>
