<?xml version="1.0" encoding="utf-8"?>
<!-- Generator: Adobe Illustrator 18.0.0, SVG Export Plug-In . SVG Version: 6.00 Build 0)  -->
<!DOCTYPE svg PUBLIC "-//W3C//DTD SVG 1.1//EN" "http://www.w3.org/Graphics/SVG/1.1/DTD/svg11.dtd">
<svg version="1.1" id="Layer_1" xmlns="http://www.w3.org/2000/svg" xmlns:xlink="http://www.w3.org/1999/xlink" x="0px" y="0px"
	 viewBox="1829.6 498.4 96.9 96.9" enable-background="new 1829.6 498.4 96.9 96.9" xml:space="preserve">
<g>
	<g opacity="0.4">
		<path fill="none" stroke="#A04A39" stroke-width="2.1278" stroke-miterlimit="10" d="M1879.2,501.5c-25.6,0-46.3,20.7-46.3,46.3
			c0,25.6,20.7,46.3,46.3,46.3c25.6,0,46.3-20.7,46.3-46.3C1925.5,522.3,1904.7,501.5,1879.2,501.5z M1891.4,547.7h-8
			c0,12.8,0,28.6,0,28.6h-11.9c0,0,0-15.6,0-28.6h-5.7v-10.1h5.7V531c0-4.7,2.2-12,12-12l8.8,0v9.8c0,0-5.4,0-6.4,0
			c-1,0-2.5,0.5-2.5,2.7v6h9.1L1891.4,547.7z"/>
	</g>
	<g>
		<path fill="none" stroke="#8C4647" stroke-width="2.1278" stroke-miterlimit="10" d="M1877,499.4c-25.6,0-46.3,20.7-46.3,46.3
			c0,25.6,20.7,46.3,46.3,46.3s46.3-20.7,46.3-46.3C1923.4,520.2,1902.6,499.4,1877,499.4z M1889.3,545.6h-8c0,12.8,0,28.6,0,28.6
			h-11.9c0,0,0-15.6,0-28.6h-5.7v-10.1h5.7v-6.5c0-4.7,2.2-12,12-12l8.8,0v9.8c0,0-5.4,0-6.4,0c-1,0-2.5,0.5-2.5,2.7v6h9.1
			L1889.3,545.6z"/>
	</g>
</g>
</svg>
