<?xml version="1.0" encoding="utf-8"?>
<!-- Generator: Adobe Illustrator 18.0.0, SVG Export Plug-In . SVG Version: 6.00 Build 0)  -->
<!DOCTYPE svg PUBLIC "-//W3C//DTD SVG 1.1//EN" "http://www.w3.org/Graphics/SVG/1.1/DTD/svg11.dtd">
<svg version="1.1" id="Layer_1" xmlns="http://www.w3.org/2000/svg" xmlns:xlink="http://www.w3.org/1999/xlink" x="0px" y="0px"
	 viewBox="1418.2 498.4 94.8 94.8" enable-background="new 1418.2 498.4 94.8 94.8" xml:space="preserve">
<g>
	<g opacity="0.4">
		<path fill="none" stroke="#A04A39" stroke-width="2.1278" stroke-miterlimit="10" d="M1467.7,501.1c-25.8,0-46.7,20.9-46.7,46.7
			c0,25.8,20.9,46.7,46.7,46.7c25.8,0,46.7-20.9,46.7-46.7C1514.5,522.1,1493.5,501.1,1467.7,501.1z M1453.9,576.9h-12.5v-37.6h12.5
			V576.9z M1447.6,534.2L1447.6,534.2c-4.3,0-7-2.9-7-6.5c0-3.7,2.8-6.5,7.1-6.5c4.3,0,6.9,2.8,7,6.5
			C1454.7,531.3,1452,534.2,1447.6,534.2z M1498.9,576.9h-12.5v-20.1c0-5-1.8-8.5-6.3-8.5c-3.4,0-5.5,2.3-6.4,4.6
			c-0.3,0.8-0.4,1.9-0.4,3.1v21h-12.5c0,0,0.2-34.1,0-37.6h12.5v5.3c1.7-2.6,4.6-6.2,11.3-6.2c8.2,0,14.4,5.4,14.4,16.9V576.9z"/>
	</g>
	<g>
		<path fill="none" stroke="#8C4647" stroke-width="2.1278" stroke-miterlimit="10" d="M1465.6,499c-25.8,0-46.7,20.9-46.7,46.7
			c0,25.8,20.9,46.7,46.7,46.7c25.8,0,46.7-20.9,46.7-46.7C1512.4,519.9,1491.4,499,1465.6,499z M1451.8,574.8h-12.5v-37.6h12.5
			V574.8z M1445.5,532.1L1445.5,532.1c-4.3,0-7-2.9-7-6.5c0-3.7,2.8-6.5,7.1-6.5c4.3,0,6.9,2.8,7,6.5
			C1452.6,529.2,1449.9,532.1,1445.5,532.1z M1496.8,574.8h-12.5v-20.1c0-5-1.8-8.5-6.3-8.5c-3.4,0-5.5,2.3-6.4,4.6
			c-0.3,0.8-0.4,1.9-0.4,3.1v21h-12.5c0,0,0.2-34.1,0-37.6h12.5v5.3c1.7-2.6,4.6-6.2,11.3-6.2c8.2,0,14.4,5.4,14.4,16.9V574.8z"/>
	</g>
</g>
</svg>
