<?xml version="1.0" encoding="utf-8"?>
<!-- Generator: Adobe Illustrator 18.0.0, SVG Export Plug-In . SVG Version: 6.00 Build 0)  -->
<!DOCTYPE svg PUBLIC "-//W3C//DTD SVG 1.1//EN" "http://www.w3.org/Graphics/SVG/1.1/DTD/svg11.dtd">
<svg version="1.1" xmlns="http://www.w3.org/2000/svg" xmlns:xlink="http://www.w3.org/1999/xlink" x="0px" y="0px"
	 viewBox="0 0 800 800" enable-background="new 0 0 800 800" xml:space="preserve">
<g id="Layer_1">
</g>
<g id="might_it_right-light">
</g>
<g id="might_it_right-dark">
	<g>
		<path fill="none" stroke="#D9B7B0" stroke-width="9.657" d="M52.4,439.2L361.8,25.7h324.4v406.5l95.1-7v212.3l-102.1-8l7,151.2
			H425.9l10-151.2l-383.5,8V439.2z M302.8,435.2v4l133.2-7V319.1c0-21,5-42.1,12-62.1l-6-4c-11,23-26,44.1-42.1,63.1L302.8,435.2z"
			/>
	</g>
	<g>
		<path fill="none" stroke="#8C4547" stroke-width="9.657" d="M35.9,422.1L345.3,8.6h324.4v406.5l95.1-7v212.3l-102.1-8l7,151.2
			H409.4l10-151.2l-383.5,8V422.1z M286.2,418.1v4l133.2-7V302c0-21,5-42.1,12-62.1l-6-4c-11,23-26,44.1-42.1,63.1L286.2,418.1z"/>
	</g>
</g>
</svg>
