<?xml version="1.0" encoding="utf-8"?>
<!-- Generator: Adobe Illustrator 18.0.0, SVG Export Plug-In . SVG Version: 6.00 Build 0)  -->
<!DOCTYPE svg PUBLIC "-//W3C//DTD SVG 1.1//EN" "http://www.w3.org/Graphics/SVG/1.1/DTD/svg11.dtd">
<svg version="1.1" id="Layer_1" xmlns="http://www.w3.org/2000/svg" xmlns:xlink="http://www.w3.org/1999/xlink" x="0px" y="0px"
	 width="792px" height="1224px" viewBox="0 0 792 1224" enable-background="new 0 0 792 1224" xml:space="preserve">
<g id="Layer_1_1_">
</g>
<g id="might_it_right-light">
</g>
<g id="might_it_right-dark">
	<g>
		<path fill="none" stroke="#A7A7A8" stroke-width="9.657" d="M51.9,650.8l306.3-409.4h321.2v402.4l94.1-6.9v210.2l-101.1-7.9
			l6.9,149.7H421.6l9.9-149.7l-379.7,7.9C51.9,847.1,51.9,650.8,51.9,650.8z M299.8,646.8v4l131.9-6.9v-112
			c0-20.8,4.9-41.7,11.9-61.5l-5.9-4c-10.9,22.8-25.7,43.7-41.7,62.5L299.8,646.8z"/>
	</g>
	<g>
		<path fill="none" stroke="#6D6E70" stroke-width="9.657" d="M35.5,633.9l306.3-409.4H663v402.4l94.1-6.9v210.2l-101.1-7.9L663,972
			H405.3l9.9-149.7l-379.7,7.9C35.5,830.2,35.5,633.9,35.5,633.9z M283.3,629.9v4l131.9-6.9V515c0-20.8,5-41.7,11.9-61.5l-5.9-4
			c-10.9,22.8-25.7,43.7-41.7,62.5L283.3,629.9z"/>
	</g>
</g>
</svg>
