<?xml version="1.0" encoding="utf-8"?>
<!-- Generator: Adobe Illustrator 18.0.0, SVG Export Plug-In . SVG Version: 6.00 Build 0)  -->
<!DOCTYPE svg PUBLIC "-//W3C//DTD SVG 1.1//EN" "http://www.w3.org/Graphics/SVG/1.1/DTD/svg11.dtd">
<svg version="1.1" xmlns="http://www.w3.org/2000/svg" xmlns:xlink="http://www.w3.org/1999/xlink" x="0px" y="0px"
	 viewBox="0 0 800 800" enable-background="new 0 0 800 800" xml:space="preserve">
<g id="Layer_1" display="none">
	<g display="inline">
		<g opacity="0.4">
			<path fill="none" stroke="#A04A39" stroke-width="13" stroke-miterlimit="10" d="M556.8,369.9c-49.1,0-55.6,49.1-55.6,49.1h104.1
				C605.1,419,605.1,369.9,556.8,369.9z"/>
			<path fill="none" stroke="#A04A39" stroke-width="13" stroke-miterlimit="10" d="M320.9,419h-92.6v84.5h82c1.7,0,3.3,0,5.8,0
				c13.1,0,37.7-4.1,37.7-41C353.6,418.2,320.9,419,320.9,419z"/>
			<path fill="none" stroke="#A04A39" stroke-width="13" stroke-miterlimit="10" d="M406.9,28.3c-209.8,0-379.3,169.6-379.3,379.3
				s169.6,379.3,379.3,379.3s379.3-169.6,379.3-379.3C787,198.8,616.5,28.3,406.9,28.3z M487.2,261.7h130.3V301H487.2V261.7z
				 M420.8,466.5c0,96.6-100.7,93.4-100.7,93.4h-92.6H225h-69.7v-317H225h2.5h92.6c50,0,89.3,27.9,89.3,84.3
				c0,56.6-48.3,60.6-48.3,60.6C425.8,388,420.8,466.5,420.8,466.5z M665.8,460.9H502c0,58.9,55.6,54.9,55.6,54.9
				c52.4,0,50.8-34.4,50.8-34.4h55.6c0,90.1-108.2,84.3-108.2,84.3c-130.3,0-122-121.2-122-121.2s0-122,122-122
				C683.7,324.1,665.8,460.9,665.8,460.9z"/>
			<path fill="none" stroke="#A04A39" stroke-width="13" stroke-miterlimit="10" d="M343,332.2c0-32.7-22.1-32.7-22.1-32.7h-11.5
				h-80.3v70.4h86.8C329.9,369.9,343,365,343,332.2z"/>
		</g>
		<g>
			<g>
				<path fill="none" stroke="#8C4647" stroke-width="13" stroke-miterlimit="10" d="M538.8,352.7c-49.1,0-55.6,49.1-55.6,49.1
					h104.1C587.1,401.8,587.9,352.7,538.8,352.7z"/>
				<path fill="none" stroke="#8C4647" stroke-width="13" stroke-miterlimit="10" d="M302.8,401.8h-92.6v84.3h82c1.7,0,3.3,0,5.8,0
					c13.1,0,37.7-4.1,37.7-41C336.5,401,302.8,401.8,302.8,401.8z"/>
				<path fill="none" stroke="#8C4647" stroke-width="13" stroke-miterlimit="10" d="M389.8,11.1C180,11.1,10.4,180.7,10.4,390.4
					S180,769.8,389.8,769.8s379.3-169.6,379.3-379.3C768.9,181.5,599.4,11.1,389.8,11.1z M470,244.6h130.3v39.3H470V244.6z
					 M403.6,449.4c0,96.6-100.7,93.4-100.7,93.4h-92.6h-2.5h-69.7v-317h69.7h2.5h92.6c50,0,89.3,27.9,89.3,84.3
					s-48.3,60.6-48.3,60.6C407.7,370.7,403.6,449.4,403.6,449.4z M647.7,443.6H483.9c0,58.9,55.6,54.9,55.6,54.9
					c52.4,0,50.8-34.4,50.8-34.4H646c0,90.1-108.2,84.3-108.2,84.3c-130.3,0-122-121.2-122-121.2s0-122,122-122
					C665.8,306,647.7,443.6,647.7,443.6z"/>
				<path fill="none" stroke="#8C4647" stroke-width="13" stroke-miterlimit="10" d="M325.9,315c0-32.7-22.1-32.7-22.1-32.7h-11.5
					h-80.3v70.4h86.8C311.8,352.7,325.9,347.8,325.9,315z"/>
			</g>
		</g>
	</g>
</g>
<g id="might_it_right-light">
	<g>
		<path fill="none" stroke="#D9B7B0" stroke-width="10.5" stroke-miterlimit="10" d="M167.5,187.2h40.2l14.8,56.5h1
			c0.7-4.7,1.4-9.7,2.7-14.3l12.1-42.2h39.8L296,294.8h-37.8l-5.3-58.9h-0.7c-0.7,3.6-1.4,7.3-2.6,10.7L234,294.8h-22.8l-14-45.5
			c-1.1-4.6-2.1-8.8-2.4-13.4h-1.3c-0.3,4.3-0.6,8.7-1,13l-4.6,46h-37.8L167.5,187.2z"/>
		<path fill="none" stroke="#D9B7B0" stroke-width="10.5" stroke-miterlimit="10" d="M352.2,294.8h-41.4l37.4-107.6h43.2l38.4,107.6
			h-41.4l-3.6-13.4h-29.5L352.2,294.8z M378,255.8l-4.6-19c-1.1-4.6-1.9-9.3-2.6-13.8h-1.4l-7.1,32.8H378z"/>
		<path fill="none" stroke="#D9B7B0" stroke-width="10.5" stroke-miterlimit="10" d="M449.7,187.2h38.1l-0.9,46.7h0.9
			c0.9-4.4,3.3-8.3,5.4-12.1l18.8-34.5h42.7L521,239.6l37.3,55.2h-45.4l-18.6-32.5c-2.3-4.1-5.7-8.1-6.6-12.6h-0.9l0.9,45.1h-38.1
			V187.2z"/>
		<path fill="none" stroke="#D9B7B0" stroke-width="10.5" stroke-miterlimit="10" d="M577.4,187.2h72.4v29.4h-33v10.3h30.1v28h-30.1
			v10.6h34.1v29.4h-73.5V187.2z"/>
		<path fill="none" stroke="#D9B7B0" stroke-width="10.5" stroke-miterlimit="10" d="M334.1,349.5h39.1v107.6h-39.1V349.5z"/>
		<path fill="none" stroke="#D9B7B0" stroke-width="10.5" stroke-miterlimit="10" d="M395.3,349.5h82.2v35l-21.6-1v73.6h-39.1v-73.6
			l-21.6,1V349.5z"/>
		<path fill="none" stroke="#D9B7B0" stroke-width="10.5" stroke-miterlimit="10" d="M140.6,511.8h47.2c24.3,0,44.8,10.3,44.8,37.4
			c0,16.3-6.3,23.1-20.8,28v0.9c2,1.6,4.4,3.3,6.6,6.4l23.4,35h-45.1l-17.1-34.5h-0.7v34.5h-38.2V511.8z M178.9,559.5h2.7
			c6.4,0,12.8-1,12.8-9c0-8.3-5.9-9.3-12.6-9.3h-3V559.5z"/>
		<path fill="none" stroke="#D9B7B0" stroke-width="10.5" stroke-miterlimit="10" d="M260.4,511.8h39.1v107.6h-39.1V511.8z"/>
		<path fill="none" stroke="#D9B7B0" stroke-width="10.5" stroke-miterlimit="10" d="M442.8,556c-0.3,17.6-0.3,32.3-13,46
			c-11.4,12.4-29,19.1-45.7,19.1c-32.8,0-59.4-20.3-59.4-54.8c0-35.1,25.8-56.2,59.7-56.2c18.7,0,44.4,9.3,52.8,27.7l-36.5,13.4
			c-3-5.4-8.6-8.3-14.8-8.3c-14,0-21.7,12-21.7,25c0,11.8,7.4,23,20.1,23c6.1,0,14-2.9,15.8-9.4h-17.7V556H442.8z"/>
		<path fill="none" stroke="#D9B7B0" stroke-width="10.5" stroke-miterlimit="10" d="M467.6,511.8h37.7V548h24v-36.3h37.7v107.6
			h-37.7V582h-24v37.4h-37.7V511.8z"/>
		<path fill="none" stroke="#D9B7B0" stroke-width="10.5" stroke-miterlimit="10" d="M588.5,511.8h82.2v35l-21.6-1v73.6H610v-73.6
			l-21.6,1V511.8z"/>
	</g>
	<circle fill="none" stroke="#D9B7B0" stroke-width="10.5" stroke-miterlimit="10" cx="407.4" cy="407.4" r="384.1"/>
</g>
<g id="might_it_right-dark">
	<g>
		<path fill="none" stroke="#8C4547" stroke-width="10.5" stroke-miterlimit="10" d="M151.9,173.8h40.2l14.8,56.5h1
			c0.7-4.7,1.4-9.7,2.7-14.3l12.1-42.2h39.8l17.7,107.6h-37.8l-5.3-58.9h-0.7c-0.7,3.6-1.4,7.3-2.6,10.7l-15.6,48.2h-22.8l-14-45.5
			c-1.1-4.6-2.1-8.8-2.4-13.4h-1.3c-0.3,4.3-0.6,8.7-1,13l-4.6,46h-37.8L151.9,173.8z"/>
		<path fill="none" stroke="#8C4547" stroke-width="10.5" stroke-miterlimit="10" d="M336.5,281.4h-41.4l37.4-107.6h43.2l38.4,107.6
			h-41.4l-3.6-13.4h-29.5L336.5,281.4z M362.4,242.4l-4.6-19c-1.1-4.6-1.9-9.3-2.6-13.8h-1.4l-7.1,32.8H362.4z"/>
		<path fill="none" stroke="#8C4547" stroke-width="10.5" stroke-miterlimit="10" d="M434,173.8h38.1l-0.9,46.7h0.9
			c0.9-4.4,3.3-8.3,5.4-12.1l18.8-34.5H539l-33.7,52.4l37.3,55.2h-45.4l-18.6-32.5c-2.3-4.1-5.7-8.1-6.6-12.6h-0.9l0.9,45.1H434
			V173.8z"/>
		<path fill="none" stroke="#8C4547" stroke-width="10.5" stroke-miterlimit="10" d="M561.7,173.8h72.4v29.4h-33v10.3h30.1v28h-30.1
			V252h34.1v29.4h-73.5V173.8z"/>
		<path fill="none" stroke="#8C4547" stroke-width="10.5" stroke-miterlimit="10" d="M318.4,336h39.1v107.6h-39.1V336z"/>
		<path fill="none" stroke="#8C4547" stroke-width="10.5" stroke-miterlimit="10" d="M379.6,336h82.2v35l-21.6-1v73.6h-39.1V370
			l-21.6,1V336z"/>
		<path fill="none" stroke="#8C4547" stroke-width="10.5" stroke-miterlimit="10" d="M125,498.3h47.2c24.3,0,44.8,10.3,44.8,37.4
			c0,16.3-6.3,23.1-20.8,28v0.9c2,1.6,4.4,3.3,6.6,6.4l23.4,35H181l-17.1-34.5h-0.7V606H125V498.3z M163.2,546h2.7
			c6.4,0,12.8-1,12.8-9c0-8.3-5.9-9.3-12.6-9.3h-3V546z"/>
		<path fill="none" stroke="#8C4547" stroke-width="10.5" stroke-miterlimit="10" d="M244.7,498.3h39.1V606h-39.1V498.3z"/>
		<path fill="none" stroke="#8C4547" stroke-width="10.5" stroke-miterlimit="10" d="M427.1,542.6c-0.3,17.6-0.3,32.3-13,46
			c-11.4,12.4-29,19.1-45.7,19.1c-32.8,0-59.4-20.3-59.4-54.8c0-35.1,25.8-56.2,59.7-56.2c18.7,0,44.4,9.3,52.8,27.7L385,537.7
			c-3-5.4-8.6-8.3-14.8-8.3c-14,0-21.7,12-21.7,25c0,11.8,7.4,23,20.1,23c6.1,0,14-2.9,15.8-9.4h-17.7v-25.4H427.1z"/>
		<path fill="none" stroke="#8C4547" stroke-width="10.5" stroke-miterlimit="10" d="M451.9,498.3h37.7v36.3h24v-36.3h37.7V606
			h-37.7v-37.4h-24V606h-37.7V498.3z"/>
		<path fill="none" stroke="#8C4547" stroke-width="10.5" stroke-miterlimit="10" d="M572.8,498.3H655v35l-21.6-1V606h-39.1v-73.6
			l-21.6,1V498.3z"/>
	</g>
	<circle fill="none" stroke="#8C4547" stroke-width="10.5" stroke-miterlimit="10" cx="392.6" cy="394.6" r="384.1"/>
</g>
</svg>
