<?xml version="1.0" encoding="utf-8"?>
<!-- Generator: Adobe Illustrator 18.0.0, SVG Export Plug-In . SVG Version: 6.00 Build 0)  -->
<!DOCTYPE svg PUBLIC "-//W3C//DTD SVG 1.1//EN" "http://www.w3.org/Graphics/SVG/1.1/DTD/svg11.dtd">
<svg version="1.1" id="Layer_1" xmlns="http://www.w3.org/2000/svg" xmlns:xlink="http://www.w3.org/1999/xlink" x="0px" y="0px"
	 viewBox="-5 202 796 816" style="enable-background:new -5 202 796 816;" xml:space="preserve">
<style type="text/css">
	.st0{display:none;}
	.st1{display:inline;}
	.st2{opacity:0.4;}
	.st3{fill:none;stroke:#A04A39;stroke-width:13;stroke-miterlimit:10;}
	.st4{fill:none;stroke:#8C4647;stroke-width:13;stroke-miterlimit:10;}
	.st5{fill:none;stroke:#A7A7A8;stroke-width:10.5;stroke-miterlimit:10;}
	.st6{fill:none;stroke:#6D6E70;stroke-width:10.5;stroke-miterlimit:10;}
</style>
<g id="Layer_1_1_" class="st0">
	<g class="st1">
		<g class="st2">
			<path class="st3" d="M551.2,582.2c-48.6,0-55,48.6-55,48.6h103.1C599,630.8,599,582.2,551.2,582.2z"/>
			<path class="st3" d="M317.7,630.8H226v83.7h81.2c1.7,0,3.3,0,5.7,0c13,0,37.3-4.1,37.3-40.6C350.1,630,317.7,630.8,317.7,630.8z"
				/>
			<path class="st3" d="M402.8,244C195.1,244,27.3,411.9,27.3,619.5S195.2,995,402.8,995s375.5-167.9,375.5-375.5
				C779.1,412.8,610.3,244,402.8,244z M482.3,475.1h129V514h-129V475.1z M416.6,677.8c0,95.6-99.7,92.5-99.7,92.5h-91.7h-2.5h-69
				V456.5h69h2.5h91.7c49.5,0,88.4,27.6,88.4,83.5c0,56-47.8,60-47.8,60C421.5,600.1,416.6,677.8,416.6,677.8z M659.1,672.3H497
				c0,58.3,55,54.4,55,54.4c51.9,0,50.3-34.1,50.3-34.1h55c0,89.2-107.1,83.5-107.1,83.5c-129,0-120.8-120-120.8-120
				s0-120.8,120.8-120.8C676.9,536.9,659.1,672.3,659.1,672.3z"/>
			<path class="st3" d="M339.6,544.9c0-32.4-21.9-32.4-21.9-32.4h-11.4h-79.5v69.7h85.9C326.6,582.2,339.6,577.3,339.6,544.9z"/>
		</g>
		<g>
			<g>
				<path class="st4" d="M533.4,565.2c-48.6,0-55,48.6-55,48.6h103.1C581.2,613.8,582,565.2,533.4,565.2z"/>
				<path class="st4" d="M299.8,613.8h-91.7v83.5h81.2c1.7,0,3.3,0,5.7,0c13,0,37.3-4.1,37.3-40.6
					C333.1,613,299.8,613.8,299.8,613.8z"/>
				<path class="st4" d="M385.9,227C178.2,227,10.3,394.9,10.3,602.5s167.9,375.6,375.6,375.6s375.5-167.9,375.5-375.5
					C761.2,395.7,593.4,227,385.9,227z M465.3,458.2h129v38.9h-129V458.2z M399.6,660.9c0,95.6-99.7,92.5-99.7,92.5h-91.7h-2.5h-69
					V439.5h69h2.5h91.7c49.5,0,88.4,27.6,88.4,83.5s-47.8,60-47.8,60C403.6,583,399.6,660.9,399.6,660.9z M641.2,655.2H479.1
					c0,58.3,55,54.4,55,54.4c51.9,0,50.3-34.1,50.3-34.1h55.1c0,89.2-107.1,83.5-107.1,83.5c-129,0-120.8-120-120.8-120
					s0-120.8,120.8-120.8C659.1,518.9,641.2,655.2,641.2,655.2z"/>
				<path class="st4" d="M322.6,527.8c0-32.4-21.9-32.4-21.9-32.4h-11.4h-79.5v69.7h85.9C308.7,565.2,322.6,560.3,322.6,527.8z"/>
			</g>
		</g>
	</g>
</g>
<g>
	<g id="might_it_right-light">
		<g>
			<path class="st5" d="M162.8,398.3h39.8l14.7,55.9h1c0.7-4.7,1.4-9.6,2.7-14.2l12-41.8h39.4L290,504.9h-37.4l-5.2-58.3h-0.7
				c-0.7,3.6-1.4,7.2-2.6,10.6l-15.4,47.7h-22.6l-13.9-45c-1.1-4.6-2.1-8.7-2.4-13.3h-1.3c-0.3,4.3-0.6,8.6-1,12.9L183,505h-37.4
				L162.8,398.3z"/>
			<path class="st5" d="M345.7,504.9h-41l37-106.5h42.8l38,106.5h-41l-3.6-13.3h-29.2L345.7,504.9z M371.2,466.2l-4.6-18.8
				c-1.1-4.6-1.9-9.2-2.6-13.7h-1.4l-7,32.5H371.2z"/>
			<path class="st5" d="M442.2,398.3h37.7l-0.9,46.2h0.9c0.9-4.4,3.3-8.2,5.3-12l18.6-34.2h42.3l-33.4,51.8l36.9,54.6h-44.9
				l-18.4-32.2c-2.3-4.1-5.6-8-6.5-12.5h-0.9l0.9,44.6h-37.7L442.2,398.3L442.2,398.3z"/>
			<path class="st5" d="M568.6,398.3h71.7v29.1h-32.7v10.2h29.8v27.7h-29.8v10.5h33.8V505h-72.8V398.3z"/>
			<path class="st5" d="M327.8,559h38.7v106.5h-38.7V559z"/>
			<path class="st5" d="M388.3,559h81.4v34.7l-21.4-1v72.9h-38.7v-72.9l-21.4,1L388.3,559L388.3,559z"/>
			<path class="st5" d="M136.2,719.7h46.7c24.1,0,44.4,10.2,44.4,37c0,16.1-6.2,22.9-20.6,27.7v0.9c2,1.6,4.4,3.3,6.5,6.3l23.2,34.6
				h-44.6L174.9,792h-0.7v34.2h-37.8L136.2,719.7L136.2,719.7z M174.1,766.9h2.7c6.3,0,12.7-1,12.7-8.9c0-8.2-5.8-9.2-12.5-9.2h-3
				L174.1,766.9L174.1,766.9z"/>
			<path class="st5" d="M254.8,719.7h38.7v106.5h-38.7V719.7z"/>
			<path class="st5" d="M435.4,763.4c-0.3,17.4-0.3,32-12.9,45.5c-11.3,12.3-28.7,18.9-45.2,18.9c-32.5,0-58.8-20.1-58.8-54.3
				c0-34.7,25.5-55.6,59.1-55.6c18.5,0,44,9.2,52.3,27.4l-36.1,13.3c-3-5.3-8.5-8.2-14.7-8.2c-13.9,0-21.5,11.9-21.5,24.8
				c0,11.7,7.3,22.8,19.9,22.8c6,0,13.9-2.9,15.6-9.3h-17.5v-25.2h59.8V763.4z"/>
			<path class="st5" d="M459.9,719.7h37.3v35.8H521v-35.9h37.3v106.5H521v-36.9h-23.8v37h-37.3L459.9,719.7L459.9,719.7z"/>
			<path class="st5" d="M579.6,719.7H661v34.6l-21.4-1v72.9h-38.7v-72.9l-21.4,1L579.6,719.7L579.6,719.7z"/>
		</g>
		<circle class="st5" cx="400.3" cy="616.3" r="380.3"/>
	</g>
	<g id="might_it_right-dark">
		<g>
			<path class="st6" d="M147.4,385.1h39.8l14.7,55.9h1c0.7-4.7,1.4-9.6,2.7-14.2l12-41.8H257l17.5,106.5H237l-5.2-58.3H231
				c-0.7,3.6-1.4,7.2-2.6,10.6L213,491.6h-22.6l-13.9-45c-1.1-4.6-2.1-8.7-2.4-13.3h-1.3c-0.3,4.3-0.6,8.6-1,12.9l-4.6,45.5H130
				L147.4,385.1z"/>
			<path class="st6" d="M330.1,491.6h-41l37-106.5h42.8l38,106.5h-41l-3.6-13.3h-29.2L330.1,491.6z M355.8,453l-4.6-18.8
				c-1.1-4.6-1.9-9.2-2.6-13.7h-1.4l-7,32.5H355.8z"/>
			<path class="st6" d="M426.7,385.1h37.7l-0.9,46.2h0.9c0.9-4.4,3.3-8.2,5.3-12l18.6-34.2h42.3L497.2,437l36.9,54.6h-44.9
				l-18.4-32.2c-2.3-4.1-5.6-8-6.5-12.5h-0.9l0.9,44.6h-37.6L426.7,385.1L426.7,385.1z"/>
			<path class="st6" d="M553.1,385.1h71.7v29.1h-32.7v10.2h29.8v27.7h-29.8v10.4h33.8v29.1h-72.8V385.1z"/>
			<path class="st6" d="M312.2,545.6h38.7v106.5h-38.7V545.6z"/>
			<path class="st6" d="M372.8,545.6h81.4v34.6l-21.4-1v72.9h-38.7v-72.9l-21.4,1L372.8,545.6L372.8,545.6z"/>
			<path class="st6" d="M120.8,706.3h46.7c24.1,0,44.4,10.2,44.4,37c0,16.1-6.2,22.9-20.6,27.7v0.9c2,1.6,4.4,3.3,6.5,6.3l23.2,34.7
				h-44.7l-16.9-34.2h-0.7v34.2h-37.8L120.8,706.3L120.8,706.3z M158.6,753.5h2.7c6.3,0,12.7-1,12.7-8.9c0-8.2-5.8-9.2-12.5-9.2h-3
				L158.6,753.5L158.6,753.5z"/>
			<path class="st6" d="M239.3,706.3H278v106.6h-38.7V706.3L239.3,706.3z"/>
			<path class="st6" d="M419.8,750.2c-0.3,17.4-0.3,32-12.9,45.5c-11.3,12.3-28.7,18.9-45.2,18.9c-32.5,0-58.8-20.1-58.8-54.3
				c0-34.7,25.5-55.6,59.1-55.6c18.5,0,44,9.2,52.3,27.4l-36.1,13.2c-3-5.3-8.5-8.2-14.7-8.2c-13.9,0-21.5,11.9-21.5,24.8
				c0,11.7,7.3,22.8,19.9,22.8c6,0,13.9-2.9,15.6-9.3H360v-25.1h59.8V750.2z"/>
			<path class="st6" d="M444.4,706.3h37.3v35.9h23.8v-35.9h37.3v106.6h-37.3v-37h-23.8v37h-37.3L444.4,706.3L444.4,706.3z"/>
			<path class="st6" d="M564.1,706.3h81.4V741l-21.4-1v73h-38.7v-72.9l-21.4,1L564.1,706.3L564.1,706.3z"/>
		</g>
		<circle class="st6" cx="385.7" cy="603.7" r="380.3"/>
	</g>
</g>
</svg>
