<?xml version="1.0" encoding="utf-8"?>
<!-- Generator: Adobe Illustrator 18.0.0, SVG Export Plug-In . SVG Version: 6.00 Build 0)  -->
<!DOCTYPE svg PUBLIC "-//W3C//DTD SVG 1.1//EN" "http://www.w3.org/Graphics/SVG/1.1/DTD/svg11.dtd">
<svg version="1.1" id="Layer_1" xmlns="http://www.w3.org/2000/svg" xmlns:xlink="http://www.w3.org/1999/xlink" x="0px" y="0px"
	 width="792px" height="1224px" viewBox="0 0 792 1224" enable-background="new 0 0 792 1224" xml:space="preserve">
<path fill="none" stroke="#6D6E70" stroke-width="2" stroke-miterlimit="10" d="M658,562.6c0,0-13.7,31.4-9.8,39.2
	s25.5,11.8,15.7,21.6s-33.3,25.5-33.3,37.2s7.8,84.3,13.7,90.2"/>
<path fill="none" stroke="#6D6E70" stroke-width="2" stroke-miterlimit="10" d="M379.6,835c0,0,31.4-51,30.7-106.6
	c-0.2-18.6,8.4-38,28.8-33.3s29.7,6.5,33.3,4.6c3.7-1.8,17.6,12,26.9,5.6"/>
<path fill="none" stroke="#6D6E70" stroke-width="2" stroke-miterlimit="10" d="M566.9,697.8c0,0,1.8,27.8,9.3,27.8
	c7.4,0,38.9-18.6,43.5-23.1c4.6-4.6,28.8-29.7,36.1-25c7.4,4.6,23.1-2.8,27.8,48.2c4.6,51,6.5,70.4,6.5,70.4"/>
<path fill="none" stroke="#6D6E70" stroke-width="2" stroke-miterlimit="10" d="M391.8,860l45.4-31.5c0,0,7.4-6.5,19.7-30.6
	c0,0,13.6-16.7,19.1-0.9s10.2,38,14.8,42.6c4.6,4.6,10.2,42.6,4.6,51c-5.6,8.4-12,1.8-11.1-9.3c0.9-11.1,1.8-27.8,1.8-27.8
	s-2.8,9.3-7.4,6.5c-4.6-2.8-3.7-8.4-8.4-9.3c-4.6-0.9-5.6,10.2-12,10.2s-3.7-10.2-7.4-12c-3.7-1.8-4.6,10.2-10.2,11.1
	c-5.6,0.9-1.8-21.3-1.8-21.3"/>
<path fill="none" stroke="#6D6E70" stroke-width="2" stroke-miterlimit="10" d="M642,817.3c0,0,6.5-40.8,22.2-36.1
	c15.7,4.6,20.4,22.2,28.8,23.1c0,0,16.7,35.2,11.1,38c-5.6,2.7-9.3-11.1-11.1-15.7c0,0,1.8,12-3.7,17.6c-5.6,5.6-13-4.6-13-4.6
	s-1.8,10.2-5.6,9.3c-3.7-0.9-9.3-8.4-12-8.4s1.8,47.2-2.8,49.1c-4.6,1.9-10.2-4.6-10.2-41.7"/>
<path fill="none" stroke="#6D6E70" stroke-width="2" stroke-miterlimit="10" d="M516.9,696.9c0,0,8.4,25.9,2.8,26.9
	c-5.6,0.9-7.4-3.7-7.4-3.7s-1.8,16.7,3.7,20.4c5.6,3.7,39.9,38,73.2,2.8c33.3-35.2,11.1-29.7,11.1-29.7"/>
<path fill="none" stroke="#6D6E70" stroke-width="2" stroke-miterlimit="10" d="M628.1,703.4c1.8,6.5,0.9,48.2,9.3,59.3
	c8.4,11.1,12,10.2,12,10.2"/>
<path fill="none" stroke="#6D6E70" stroke-width="2" stroke-miterlimit="10" d="M477.1,711.7c0,0,15.7,52.8,12,62.1
	c-3.7,9.3-9.3,13-9.3,13"/>
<path fill="none" stroke="#6D6E70" stroke-width="2" stroke-miterlimit="10" d="M497.4,678.4c0,0,39.9,33.3,48.2,32.4
	s42.6-30.6,42.6-38.9s-4.6-41.7-4.6-41.7"/>
<path fill="none" stroke="#6D6E70" stroke-width="2" stroke-miterlimit="10" d="M528.9,607.1c0,0-1.8,25.9,0.9,30.6"/>
<path fill="none" stroke="#6D6E70" stroke-width="2" stroke-miterlimit="10" d="M537.3,644.1c0,0,4.6,5.6-1.8,8.4"/>
<path fill="none" stroke="#6D6E70" stroke-width="2" stroke-miterlimit="10" d="M525.1,653.3c0,0,1.6,2.2,2.5,2.2"/>
<path fill="none" stroke="#6D6E70" stroke-width="2" stroke-miterlimit="10" d="M532.3,672.1c0,0,21-6.5,23.2-6.5
	c2.2,0,7.1-1.8,5.9,1.8c-1.2,3.7-4,26.6-19.1,17.6"/>
<path fill="none" stroke="#6D6E70" stroke-width="2" stroke-miterlimit="10" d="M544,623.3c0,0,12.3,2.2,26.3-4"/>
<path fill="none" stroke="#6D6E70" stroke-width="2" stroke-miterlimit="10" d="M500.1,628.6c0,0,9.6,0.9,17.3-0.6"/>
<line fill="none" stroke="#6D6E70" stroke-width="2" stroke-miterlimit="10" x1="515.9" y1="601.4" x2="498.9" y2="605.1"/>
<path fill="none" stroke="#6D6E70" stroke-width="2" stroke-miterlimit="10" d="M562.2,604.8c0,0,1.2,5,7.4,5"/>
<path fill="none" stroke="#6D6E70" stroke-width="2" stroke-miterlimit="10" d="M500.4,616.5c0,0-0.3,4.3-1.8,7.7"/>
<path fill="none" stroke="#6D6E70" stroke-width="2" stroke-miterlimit="10" d="M506.3,616c0,0,0,8-1.2,9.3"/>
<path fill="none" stroke="#6D6E70" stroke-width="2" stroke-miterlimit="10" d="M511.9,612.8c0,0-0.3,10.2-1.2,11.4"/>
<path fill="none" stroke="#6D6E70" stroke-width="2" stroke-miterlimit="10" d="M515.5,614.7c0,0-0.6,8-1.6,9"/>
<path fill="none" stroke="#6D6E70" stroke-width="2" stroke-miterlimit="10" d="M542.5,606.3c0,0,1.8,10.2,3.7,11.4"/>
<path fill="none" stroke="#6D6E70" stroke-width="2" stroke-miterlimit="10" d="M549.3,604.5c0,0,1.2,11.8,3.4,12.3"/>
<path fill="none" stroke="#6D6E70" stroke-width="2" stroke-miterlimit="10" d="M555.7,608.2c0,0,0.6,7.1,2.5,8.4"/>
<path fill="none" stroke="#6D6E70" stroke-width="2" stroke-miterlimit="10" d="M561.3,610.7c0,0,1.6,5.6,2.8,6.2"/>
<path fill="none" stroke="#6D6E70" stroke-width="2" stroke-miterlimit="10" d="M534.1,562.8c0,0,3.6,4.4,9,10.7
	c12.6,14.8,35.2,40.4,46,47.3"/>
<path fill="none" stroke="#6D6E70" stroke-width="2" stroke-miterlimit="10" d="M548.3,575.2c0,0,22.9,18.6,31.5,20.4"/>
<path fill="none" stroke="#6D6E70" stroke-width="2" stroke-miterlimit="10" d="M543.4,567.7c0,0,46.9,15.4,59.3,46.3"/>
<path fill="none" stroke="#6D6E70" stroke-width="2" stroke-miterlimit="10" d="M537.8,560.9c0,0,43.3-13.6,52.5-4.3"/>
<path fill="none" stroke="#6D6E70" stroke-width="2" stroke-miterlimit="10" d="M573.6,555.4c0,0,8.6,3.7,11.8,11.1"/>
<path fill="none" stroke="#6D6E70" stroke-width="2" stroke-miterlimit="10" d="M530.4,549.8c0,0,27.8-11.8,38.3-3.1"/>
<path fill="none" stroke="#6D6E70" stroke-width="2" stroke-miterlimit="10" d="M521.7,544.3c0,0,27.8-14.8,45.1-5.6"/>
<path fill="none" stroke="#6D6E70" stroke-width="2" stroke-miterlimit="10" d="M526.1,539.3l21.6-77.8c0,0-0.6,48.8-9.3,54.4
	c-8.7,5.6-17.9,19.8-20.4,16.1c-2.5-3.7,22.9-38.9,19.1-52.5"/>
<path fill="none" stroke="#6D6E70" stroke-width="2" stroke-miterlimit="10" d="M546.4,517.7l41.4-8.6c0,0-6.8-27.8,6.2-22.2
	c13,5.6,48.8,28.4,47.6,43.8"/>
<path fill="none" stroke="#6D6E70" stroke-width="2" stroke-miterlimit="10" d="M601.4,502.3c0,0,28.4,32.1,31.5,61.2
	c0,0,2.5,15.4,9.3,20.4c6.8,5,13,12.3,16.7,16.7c3.7,4.3,9.9,10.5-1.8,13.6c-11.8,3.1-34.6,6.8-27.8,16.1
	c6.8,9.3,16.1,37.7,10.5,46.9c-5.6,9.3-23.5,25.9-23.5,25.9s-4.3,7.4,5,25.9c0,0-13.6,26.6-9.9,44.5c0,0,0.6-28.4-3.7-37.7
	s-16.7-22.9,9.3-46.3c0,0,30.3-5,28.4-27.2"/>
<line fill="none" stroke="#6D6E70" stroke-width="2" stroke-miterlimit="10" x1="621.8" y1="780.9" x2="636.6" y2="737"/>
<path fill="none" stroke="#6D6E70" stroke-width="2" stroke-miterlimit="10" d="M596.5,674c0,0,14.2,28.4,25.9,36.5
	c0,0,6.8,3.1-0.6,35.2c-7.4,32.1-8,43.8-8,43.8"/>
<path fill="none" stroke="#6D6E70" stroke-width="2" stroke-miterlimit="10" d="M605.8,569.6c0,0-29,20.4-16.7,34
	c12.3,13.6,28.4,1.2,33.3,13c5,11.8,1.8,20.4-9.9,30.9c-11.8,10.5-2.5,18.6,8.6,25.4"/>
<path fill="none" stroke="#6D6E70" stroke-width="2" stroke-miterlimit="10" d="M626.2,554.1c0,0-14.8,21-8,29.7
	c6.8,8.7,21.6,11.8,19.8,16.7c-1.8,5-7.4,21.6-3.1,24.7"/>
<path fill="none" stroke="#6D6E70" stroke-width="2" stroke-miterlimit="10" d="M662,553.6c0,0-37.7,8.6-30.3,20.4
	c7.4,11.8,19.8,13,19.8,13"/>
<path fill="none" stroke="#6D6E70" stroke-width="2" stroke-miterlimit="10" d="M555.1,463.4c0,0,37.7-20.4,46.9-16.7
	c9.3,3.7,40.1-0.6,46.9,24.1s21.6,69.2,22.9,84.6c1.2,15.4-1.8,34-1.8,34s-1.2-10.5-5.6-28.4c-4.3-17.9-9.3-46.3-13.6-58.7
	c0,0,9.9,53.7-1.2,64.9c0,0,5-76.6-10.5-84c-15.4-7.4-41.4-39.5-46.3-6.8"/>
<path fill="none" stroke="#6D6E70" stroke-width="2" stroke-miterlimit="10" d="M553.2,494.9c0,0,28.4-37,43.8-36.5"/>
<path fill="none" stroke="#6D6E70" stroke-width="2" stroke-miterlimit="10" d="M486.5,510.9c0,0,33.3,9.9,33.3,0"/>
<path fill="none" stroke="#6D6E70" stroke-width="2" stroke-miterlimit="10" d="M487.2,540.5c0,0-5.6-14.2,6.2-11.8
	c11.8,2.5,18.6,3.7,21,0.6"/>
<path fill="none" stroke="#6D6E70" stroke-width="2" stroke-miterlimit="10" d="M531.6,468.9c0,0,6.8-6.8,2.5-6.8
	c-4.3,0-59.3-3.1-59.3-3.1s41.4,9.3,44.5,14.8s-6.2,3.1-16.1,1.2c-9.9-1.8-48.8-8.6-54.4,1.8c-5.6,10.5,3.1,14.8-1.8,24.1
	c-5,9.3-9.3,14.2-9.3,14.2"/>
<path fill="none" stroke="#6D6E70" stroke-width="2" stroke-miterlimit="10" d="M461.8,495.5c0,0,17.3,72.9,7.4,97"/>
<path fill="none" stroke="#6D6E70" stroke-width="2" stroke-miterlimit="10" d="M510.6,562.8c0,0-11.1,7.4-25.4,35.8"/>
<path fill="none" stroke="#6D6E70" stroke-width="2" stroke-miterlimit="10" d="M502.6,557.3c0,0-20.4,29-27.8,35.2
	s-16.1,15.4-7.4,30.9c8.6,15.4,33.3,25.9,27.2,36.5c-6.1,10.5-9.3,12.3-15.4,14.8"/>
<path fill="none" stroke="#6D6E70" stroke-width="2" stroke-miterlimit="10" d="M497.6,627.1c0,0,5,48.8-7.4,64.9"/>
<path fill="none" stroke="#6D6E70" stroke-width="2" stroke-miterlimit="10" d="M491.5,627.6c0,0,9.9,46.9-8,53.7"/>
<line fill="none" stroke="#6D6E70" stroke-width="2" stroke-miterlimit="10" x1="488.4" y1="585" x2="460.6" y2="607.9"/>
<path fill="none" stroke="#6D6E70" stroke-width="2" stroke-miterlimit="10" d="M482.2,561.6c0,0-18.6,22.9-21.6,32.7
	c-3.1,9.9,0,14.2,11.8,19.8c11.8,5.6,17.9,15.4,13.6,21c-4.3,5.6-32.1,29-35.8,33.3s0.6,7.4,2.5,7.4"/>
<path fill="none" stroke="#6D6E70" stroke-width="2" stroke-miterlimit="10" d="M474.8,525.8c0,0,7.4-5.6,3.7-5.6
	s-27.2,9.3-51.3,53.1c0,0-1.2,8,7.4-1.8c0,0-1.8,5.6-3.7,16.1c-1.8,10.5-9.3,32.1-1.8,37c7.4,5,9.9,9.9,9.9,9.9"/>
<path fill="none" stroke="#6D6E70" stroke-width="2" stroke-miterlimit="10" d="M436.5,645c0,0-17.9-35.8-14.8-48.8
	s27.2-37.7,27.2-42c0-4.3,3.1-14.2,1.2-22.9"/>
<path fill="none" stroke="#6D6E70" stroke-width="2" stroke-miterlimit="10" d="M453.8,515.3c1.2-1.8-1.8-5.6-5-2.5
	c-3.1,3.1-24.1,48.8-31.5,51.9s-9.9,13.6-8,14.8"/>
<path fill="none" stroke="#6D6E70" stroke-width="2" stroke-miterlimit="10" d="M539.7,506c0,0,53.1-11.8,53.1-14.2
	c0-2.5,3.7-7.4,3.7-7.4"/>
<path fill="none" stroke="#6D6E70" stroke-width="2" stroke-miterlimit="10" d="M461.2,532.6c0,0,0.6,43.3-18.6,58.1
	c-19.1,14.8-3.7,12.3-3.7,12.3"/>
<path fill="none" stroke="#6D6E70" stroke-width="2" stroke-miterlimit="10" d="M437.7,662.3c0,0,9.3-9.9,11.8-18.6
	c2.5-8.6,3.1-20.4,3.7-29.7c0.6-9.3,11.8-20.4,11.8-20.4"/>
<path fill="none" stroke="#6D6E70" stroke-width="2" stroke-miterlimit="10" d="M442,613.5c0,0-15.4,39.5-9.9,42.6
	c5.6,3.1,35.2-0.6,33.3,7.4c-1.8,8-19.1,17.3-16.1,22.2c3.1,4.9,34,18.6,33.3,29c-0.7,10.5-3.7,47.6-3.7,47.6"/>
<path fill="none" stroke="#6D6E70" stroke-width="2" stroke-miterlimit="10" d="M483.5,691.3c0,0,11.8,43.8,11.8,58.1"/>
<path fill="none" stroke="#6D6E70" stroke-width="2" stroke-miterlimit="10" d="M474.2,681.4c0,0,22.9,17.3,25.4,36.5
	c2.5,19.1,8,57.4,1.8,74.1c-6.2,16.7,0,19.1,0,19.1"/>
<ellipse fill="#6D6E70" cx="508.2" cy="627.5" rx="4.6" ry="1.4"/>
<ellipse fill="#6D6E70" cx="556.8" cy="622.3" rx="6" ry="1.4"/>
<ellipse fill="#6D6E70" cx="511.7" cy="649" rx="0.4" ry="0.5"/>
<ellipse fill="#6D6E70" cx="514.2" cy="638" rx="0.5" ry="0.8"/>
<ellipse fill="#6D6E70" cx="505.2" cy="662.4" rx="0.5" ry="0.5"/>
<ellipse fill="#6D6E70" cx="521.1" cy="667.5" rx="0.2" ry="0.5"/>
<ellipse fill="#6D6E70" cx="557.9" cy="645.6" rx="0.5" ry="0.9"/>
<ellipse fill="#6D6E70" cx="552.3" cy="637.8" rx="0.7" ry="0.3"/>
<ellipse fill="#6D6E70" cx="568.7" cy="638.6" rx="0.6" ry="0.8"/>
<ellipse fill="#6D6E70" cx="574.1" cy="649.3" rx="0.6" ry="0.6"/>
</svg>
