<?xml version="1.0" encoding="utf-8"?>
<!-- Generator: Adobe Illustrator 18.0.0, SVG Export Plug-In . SVG Version: 6.00 Build 0)  -->
<!DOCTYPE svg PUBLIC "-//W3C//DTD SVG 1.1//EN" "http://www.w3.org/Graphics/SVG/1.1/DTD/svg11.dtd">
<svg version="1.1" id="Layer_1" xmlns="http://www.w3.org/2000/svg" xmlns:xlink="http://www.w3.org/1999/xlink" x="0px" y="0px"
	 viewBox="0 168 600 292" enable-background="new 0 168 600 292" xml:space="preserve">
<g>
	<g opacity="0.4">
		<polygon fill="none" stroke="#A04A39" stroke-width="1.7979" stroke-miterlimit="10" points="565.8,406.2 34.4,406.2 141.4,200.8 
			458.8,200.9 		"/>
	</g>
	<g>
		<polygon fill="none" stroke="#8C4647" stroke-width="1.7979" stroke-miterlimit="10" points="564.7,405.1 33.3,405 140.3,199.8 
			457.7,199.8 		"/>
	</g>
</g>
<g>
	<g id="XMLID_1_">
		<g>
			<polygon fill="none" stroke="#8C4647" stroke-width="1.798" stroke-miterlimit="10" points="277.6,220.2 277.5,221.4 277,221.7 
				276.6,222 276.1,222 275.7,221.7 275.7,220.8 275.3,220 274,220 273.6,219.4 274.5,218.8 275.9,218.5 276.8,218.8 277.2,219.4 
							"/>
			<polygon fill="none" stroke="#8C4647" stroke-width="1.798" stroke-miterlimit="10" points="324.3,222.1 324.3,222.7 
				323.9,223.3 323.5,223.3 322.5,223.3 322.1,223.3 321.2,223.3 320.2,223.3 318.8,223.3 318.8,222.7 318.3,222.1 317.8,221.8 
				316.9,221.5 316.5,221.2 316.4,220.6 316.4,220.1 317.3,220.1 318.2,220 319.6,219.8 320.1,219.8 321,219.8 321.4,219.8 
				321.4,220 321.9,220.6 322,221.2 322.9,221.2 323.8,221.5 323.8,221.8 			"/>
			<polygon fill="none" stroke="#8C4647" stroke-width="1.798" stroke-miterlimit="10" points="140.3,277.6 140.6,276.8 
				141.4,274.8 142.6,274.4 143.7,272.9 144.5,271 145.3,270.2 146.8,269.1 147.2,269.1 147.5,269.9 147.8,270.2 147.6,271 
				148.1,271 149.1,271 149.3,271.8 148.7,272.1 147.5,272.5 146.8,272.9 145.5,273.7 144.4,273.7 144.5,274.8 144.8,275.6 
				143.9,276.4 143.2,276.8 142.4,277.6 142.3,279.1 141.6,279.5 140.6,279.5 140.8,279.1 			"/>
			<polygon fill="none" stroke="#8C4647" stroke-width="1.798" stroke-miterlimit="10" points="146.2,304.7 146.3,307.4 
				144.8,308.8 144.4,309.7 144.2,310.1 143.3,311 141.4,310.1 140.9,310.1 141.5,308.3 142,306.9 141.8,306 141.8,304.7 
				140.6,304.7 140.4,303.8 140.9,302.5 140.5,302 140.1,301.6 140.5,300.7 139.8,299.4 140,299 140.7,297.2 141,296.4 139.9,296.4 
				139,296 138.6,295.5 139.1,294.2 140.5,293.4 140.1,293 139.4,292.2 139.3,290.9 140.2,290.1 140.7,290.1 141.8,290.1 
				142.3,290.1 143.1,290.9 143.7,292.2 143.4,294.2 145,296 145.4,296.4 146.2,297.2 146.2,300.3 145.3,302.5 146,303.8 			"/>
			<polygon fill="none" stroke="#8C4647" stroke-width="1.798" stroke-miterlimit="10" points="387.1,359.2 388.1,357.5 
				388.2,354.7 389.7,352.5 391.2,350.3 394.7,348.7 397,347.6 398.5,345.4 399.2,342.7 401.7,342.7 401.1,345.9 400.2,348.1 
				400.6,349.8 402.2,351.4 402.4,352.5 401.3,356.4 398.7,356.4 398.3,357.6 397.9,358.7 396.7,359.2 392.9,359.8 389.2,360.4 
				381.8,362.7 382.3,361.5 384.1,360.9 			"/>
			<polygon fill="none" stroke="#8C4647" stroke-width="1.798" stroke-miterlimit="10" points="435.1,342.2 435,341.7 436.1,341.2 
				437.3,341.2 438.1,341.7 439.3,341.7 440.9,340.7 443.4,340.7 446.3,340.1 447.9,339.1 449.7,339.1 451.3,340.1 451.5,340.7 
				450.6,341.7 448.5,343.3 446.8,346 445.4,347.6 443.1,348.2 442.8,349.2 442.6,350.9 441.3,350.9 440.1,350.9 439.2,352.6 
				439.7,354.2 439.1,356.5 438.7,357.6 437.8,358.8 438.1,359.9 436.9,360.5 436.3,360.5 434.7,359.3 432.1,359.3 431.3,358.8 
				429.9,355.9 430.2,354.2 431.1,353.1 432.6,351.5 433.3,349.2 433.6,348.2 435.3,347.6 437.4,348.2 437.9,347.6 436.9,346.5 
				438.7,346 439,344.9 438.1,343.8 437.6,344.4 435.9,344.9 434.6,344.9 433.8,344.4 433.6,343.3 433.9,342.2 			"/>
			<polygon fill="none" stroke="#8C4647" stroke-width="1.798" stroke-miterlimit="10" points="443.4,330.3 443.1,329.3 
				444.3,329.3 445.5,329.3 445.7,329.8 446.3,331.8 446.4,332.3 446.9,333.9 447.5,333.9 449.7,332.8 449.8,333.3 450,333.9 
				450.1,334.4 450.6,335.9 449.7,337 448.8,338 448.2,338 445.8,338.5 444.3,337.5 443.2,335.9 442.8,334.4 443.7,333.3 
				443.7,331.3 			"/>
			<polygon fill="none" stroke="#8C4647" stroke-width="1.798" stroke-miterlimit="10" points="429.1,335.9 429.4,337 430,337 
				433.7,337 434.8,336.4 435.7,335.4 436.7,334.4 437.9,334.4 438.6,334.9 438.8,335.4 438.6,337 438.3,338 439.7,338.5 
				439.8,339.1 438.6,339.1 438,339.1 436.1,339.1 434.9,339.1 433.2,339.6 431.2,339.1 430.5,339.1 429.9,339.1 429.3,339.1 
				429.2,338.5 428.2,337 427.9,335.9 427.7,335.4 429,335.4 			"/>
			<polygon fill="none" stroke="#8C4647" stroke-width="1.798" stroke-miterlimit="10" points="429.1,340.6 431.4,340.1 
				432.7,340.1 431.7,341.2 432.5,341.7 431.4,342.2 431.1,343.3 429.7,342.8 429.9,343.8 429.9,346 428.9,347.1 426.7,348.2 
				425.3,350.3 423.6,350.9 421.8,351.4 422.1,352.5 420.8,352.5 420.7,352 418.6,351.4 418.2,349.8 417.5,349.2 415,349.2 
				414.1,348.1 411,342.8 410.4,340.1 409.7,339.6 408.4,339.6 407.9,340.1 407.5,341.1 405.2,341.7 404.6,341.7 403,340.1 
				401.7,342.7 399.2,342.7 399.9,340.1 400.4,336.4 402.8,333.3 404.7,330.8 407,327.8 409.1,326.2 411.8,324.8 413.9,323.8 
				416.8,323.3 418.6,323.3 419.3,323.8 420.2,324.8 421.5,325.3 421.7,326.3 421.4,327.2 419.2,328.3 418.9,329.3 418.4,329.8 
				416.6,329.8 415.5,330.3 415.1,331.3 414.9,332.8 416.7,332.8 418,333.3 419.2,333.3 419.6,332.3 420.8,332.3 421.6,332.8 
				422.3,333.3 422.1,334.9 422.3,335.9 424.8,335.9 425.5,336.4 426.1,338.5 			"/>
			<polygon fill="none" stroke="#8C4647" stroke-width="1.798" stroke-miterlimit="10" points="417.8,318 420.7,317.5 421.8,317.5 
				423.6,317.5 426.7,318 428.3,317.5 429.5,317.5 430.4,318.4 430.5,318.9 430.6,319.4 429,319.9 427.8,319.9 426.8,320.4 
				423.7,319.9 421.3,319.9 419.8,318.9 418.1,318.9 416.9,318.9 416.3,318.9 			"/>
			<polygon fill="none" stroke="#8C4647" stroke-width="1.798" stroke-miterlimit="10" points="469.6,310.9 470,311.8 471.1,313.2 
				471.7,311.8 472.3,311.8 472.9,311.8 473.7,312.2 473.8,314.2 474.3,315.6 474.9,317 474,318 473.4,318 472.5,317 472.1,317.5 
				471.1,318 470.5,318 469.9,318 468.8,316.5 468.8,315.1 468.3,313.7 467.6,313.2 466.8,312.7 467.2,313.7 466.5,315.1 
				466.4,316.5 465.6,317.5 466.1,318.9 466,320.4 465.8,321.3 464.6,321.3 463.4,321.3 463.2,320.9 463,320.4 463.7,318.9 
				464.2,317 463.7,315.6 462.5,315.6 461.7,316.5 461.6,318 461,318 459.7,317.5 459.1,317.5 458.8,318.4 457.2,318.9 451.9,320.9 
				450.2,321.3 448.5,323.3 446.8,323.8 445.6,323.8 444.3,323.3 444.9,321.3 445.3,318.9 445.2,318.4 446.8,318 445.4,317.5 
				444.7,317 443.8,318 442.7,318 441.9,317.5 441.6,316.5 442.2,316.5 442.9,315.1 443.8,314.2 444,312.8 443.1,311.8 442.2,309 
				440.2,306.3 440.7,304 439,302.2 439.4,300 438.9,298.2 441.1,296.5 442.1,296 442.7,296 443,296.9 443.2,297.8 442,299.1 
				442.5,300.9 444.1,302.2 444.8,304.5 445.5,306.7 445.7,307.2 446.4,307.6 447.4,307.2 447,305.8 448.3,304.4 449.4,304.4 
				450.2,306.7 451.8,306.2 453.2,307.2 454.5,307.6 456.9,306.2 457.5,304.4 458.4,304 460.2,304 460.9,304.4 461.1,306.7 
				461.6,308.1 462.5,309 463.7,309 463.9,308.1 464.6,306.7 464.7,305.3 466,305.8 466.8,308.1 467.2,309 466.2,309.5 466.7,310.9 
				466.9,311.3 468.8,311.8 468.6,311.3 467.9,309.5 468.3,309 469.1,309.5 469.3,309.9 			"/>
			<polygon fill="none" stroke="#8C4647" stroke-width="1.798" stroke-miterlimit="10" points="332,267.1 332.1,267.9 331.7,269.8 
				330.7,269.8 330.1,269.8 329.5,268.6 329,268.6 328.9,267.5 329.9,266.8 330.4,266 331.5,266.8 			"/>
			<polygon fill="none" stroke="#8C4647" stroke-width="1.798" stroke-miterlimit="10" points="323.6,264.2 324.2,264.9 323.7,266 
				322.7,266.8 321.7,267.2 321.2,267.5 320.7,267.9 319.6,267.9 319.1,267.9 318.1,267.9 317.5,267.9 317.5,267.2 318,266 
				319,264.9 320,264.9 321.1,265.3 321.6,264.9 322.6,264.2 			"/>
			<polygon fill="none" stroke="#8C4647" stroke-width="1.798" stroke-miterlimit="10" points="333.1,240.8 333.7,241.4 
				333.3,243.1 333.4,244.1 332.9,244.8 331.5,244.8 330.4,244.1 329.9,243.1 329.8,241.4 329.8,240.8 330.7,240.8 331.6,240.1 
				332.6,240.1 			"/>
			<polygon fill="none" stroke="#8C4647" stroke-width="1.798" stroke-miterlimit="10" points="283.6,235.5 284.1,234.8 
				284.6,234.8 285,235.5 285.5,235.5 285.4,236.1 285.9,236.4 286.8,237.7 287.2,238.3 288.2,238.7 288.2,239.3 288.2,239.9 
				287.7,240.3 287.1,240.9 286.7,240.9 285.7,240.9 285.2,240.3 284.3,240 282.9,239.3 281.5,238.7 281,238.3 281.1,237.7 
				281.5,237.7 282.5,237.1 283.1,236.4 283.1,236.1 			"/>
			<polygon fill="none" stroke="#8C4647" stroke-width="1.798" stroke-miterlimit="10" points="298.6,219.8 298.6,221.3 
				297.7,221.9 297.6,223.4 297.6,224.3 297.1,224.9 296.2,224.9 295.3,224.9 294.8,224.3 294.4,224.3 293.9,224.3 293.9,224.9 
				294.3,225.5 294.3,226.4 294.3,227 293.8,227 292.9,227 292.4,227 292,225.8 291.6,224.9 291.6,224.3 292.1,223.4 292.1,222.8 
				291.7,221.7 291.7,221.3 291.7,220.8 292.7,219.9 293.6,219.3 294.5,219.3 294.9,219.9 295.8,219.9 297.7,219.8 298.1,219.8 			
				"/>
			<polygon fill="none" stroke="#8C4647" stroke-width="1.798" stroke-miterlimit="10" points="287.2,220.8 288.1,220.2 
				288.5,220.2 289,220.8 288.9,221.7 288.4,222.2 287.5,222.8 287,223.4 287.5,223.8 288.3,224.3 288.8,224.3 289.2,224.9 
				289.2,225.5 288.7,226.4 287.8,227.3 286.8,228.6 285.8,228.9 284.4,229.5 283.9,228.9 283.1,227.4 282.2,226.5 280.9,225.6 
				280,225 279.6,225 279.7,223.5 280.2,222.9 280.6,222.9 281,223.5 281.9,223.8 282.3,224.4 283.3,224.4 283.8,223.5 284.3,222.3 
				283.9,221.4 283.5,221.4 283.5,220.8 283.5,220.2 284,219.9 284.9,219.9 285.8,220.2 286.2,220.8 			"/>
			<polygon fill="none" stroke="#8C4647" stroke-width="1.798" stroke-miterlimit="10" points="276.5,234.5 275.1,234.5 
				274.1,234.9 273.6,235.5 273.5,236.2 274,236.2 274.5,236.1 275,236.1 275.9,236.1 276.4,236.4 275.8,237.8 275.3,237.8 
				273.8,238.4 272.4,238.4 268.8,236.2 267.9,235.5 267.4,235.5 267.5,234.6 266.6,234.6 266.1,234.6 265.6,234.9 265,235.5 
				263.6,235.6 262.7,235.6 261.7,235.6 260.7,236.2 259.3,236.2 257.8,236.2 256.5,235.6 255.6,235.6 253.7,235.6 252.7,235.6 
				252.3,235 252.4,234.7 252.5,233.4 253.2,232.4 250.5,231.2 248.8,230.3 247.5,229.7 247.6,228.8 247.7,228.2 248.7,227.5 
				249.7,227.5 251.4,228.1 253.7,228.7 255.9,229 257.3,229.6 257.8,229.6 258.3,229 258.3,228.7 257.5,228.1 254.9,226.6 
				253.1,226 250.4,225.4 250,225.1 249.1,225.1 248.7,224.5 249.8,223.6 250.7,223.6 251.6,223.6 253,223.9 254.3,223.9 
				255.2,223.9 255.3,223.6 254,223 252.7,222.4 251.4,222.1 250.5,221.8 250.7,221 252,221 252.9,221 254.1,218.9 254.7,218.3 
				255.2,218 256.1,218 257.4,218 257.8,218.3 259.2,218 259.7,218 260.7,217.4 261.6,217.4 262,217.4 262.4,218 262.3,218.6 
				261.8,218.9 261.3,219.5 260.4,219.5 260.3,220 260.8,220 261.2,220 262.6,220 263.5,220 264,220 264.3,220.9 264.2,221.5 
				263.3,221.5 262.8,221.8 263.3,222.1 263.7,222.1 265.1,222.1 265.6,221.8 267.1,220.9 268,220.9 268.9,220.9 269.2,222.1 
				268.7,222.9 268.1,224.4 268,225.3 268.9,225.6 269.3,225.9 270.2,225.6 270.3,225 270.4,223.8 270.6,222 270.7,220.9 
				271.2,220.3 272.2,220 272.6,220 274.8,221.4 274.8,221.7 274.2,222 274.6,223.5 274,225 273.4,227.1 273.2,228.7 273.6,229.6 
				274.1,229.6 275,229.6 275.5,229.6 275.9,230.2 275.8,231.1 276.2,232.3 277.1,232.7 278,233.3 278.5,233.3 278.5,233.9 
				277.9,234.8 277.4,234.8 			"/>
			<polygon fill="none" stroke="#8C4647" stroke-width="1.798" stroke-miterlimit="10" points="310.6,253 311.5,251.3 312,251.3 
				313,251.3 312.5,252.3 313.1,253 314.1,253.7 314.6,253.7 315.1,253.7 316.1,253.7 316.1,254.8 317.6,255.5 319.7,256.2 
				321.7,256.2 322.2,256.5 322.7,256.5 322.3,258 322.8,258.7 323.3,259 323.8,259 325.3,258.7 325.9,258.7 326.4,259 326.5,260.5 
				326.5,260.8 326,261.6 325,261.6 323.5,261.6 322.4,260.8 321.9,260.5 320.8,259.8 320.3,259.1 319.8,259.1 319.3,259.1 
				319.3,259.8 318.8,260.5 317.8,260.5 317.3,260.5 316.8,260.9 316.3,262.3 315.8,263.4 314.8,264.2 314.3,264.2 313.8,262.3 
				312.8,262.3 312.2,262.3 310.7,262.3 309.7,262.3 309.2,262.3 309.2,260.9 309.7,260.5 310.7,259.8 311.2,259.1 311.1,258 
				310.1,257.3 309.6,256.6 			"/>
			<polygon fill="none" stroke="#8C4647" stroke-width="1.798" stroke-miterlimit="10" points="347.7,232.3 349.1,232 349.7,233 
				348.8,233.6 346.9,233.6 345,234.2 347.1,235.8 349.5,235.8 352.1,237.4 354.1,237.4 355.9,236.8 356.9,236.8 357.9,237.4 
				357.6,238.4 358.7,239 360.6,239 361.4,238.3 362,239 362.6,239.7 364.9,239 366.4,239 367.5,239.6 367.2,240.6 365.7,240.6 
				365.8,241.3 366.4,242.3 366.9,242.3 367.2,243.6 365.7,243.6 365.8,244.6 367.4,245.3 367.7,247 366.2,247 365.1,246.3 
				364.2,246.3 363.1,246 361.3,243.6 360.2,243 357.3,243.7 354.4,243.7 356,244.7 356.1,245.3 354.2,245.3 353.7,245.3 
				355.2,246.3 356.9,247.7 358.4,247.7 360.2,249.4 362,248.7 364.1,249.4 364.9,251.1 368.5,251.8 368.2,252.8 368.5,254.6 
				370.8,256.4 371.4,257.1 367.4,257.1 361.4,254.6 361,255.3 359,255.3 358.6,256.4 363.4,257.8 365.1,258.9 368.7,258.9 
				370.3,259.6 369.2,262.2 362.3,260.8 359.2,260.8 357.2,260.4 353.6,260.8 350.8,259 351.1,257.2 349.1,257.2 344.9,256.1 
				343.2,253.6 341.2,253.6 341.9,256.1 339.3,255.4 337.9,256.5 333.9,257.2 330.7,255.4 332,252.3 334,252.2 337,252.2 
				340.9,251.2 340.8,250.2 339.2,248.8 340,247.1 341.3,245.4 344.8,245.4 346.9,246.4 348.8,246.4 350.2,245.3 349,243.7 
				345.1,243.7 345.2,244.7 343.2,244.7 341.2,243.7 341.5,242 341,241.4 334.3,236.8 329.4,235.9 327.9,234.6 325.9,233.1 
				323.5,232.1 322,232.2 323.6,234.3 323.1,234.7 319.8,233.7 317.8,233.7 315.5,235.3 309.8,233.8 306.9,233.8 303.6,232.2 
				303.1,230.7 304.1,230.7 305.9,231 306.4,230 304.1,230 303.6,228.8 301.7,228.5 301.3,227 301.8,224.9 303.2,223.4 306.3,220.7 
				308.2,220.1 308.7,221.3 308.2,222.8 306.4,224.2 305.9,225.4 306.4,226.3 308.8,227.9 309.2,230 310.2,230.6 311.6,230.6 
				312.5,228.8 311.1,227.8 310.6,226.9 311,226.3 311,225.4 310.1,224.8 309.6,224.8 310.1,223.3 312.3,221.5 314.1,220.1 
				314.6,220.1 315.5,220.7 315.5,221.2 315.6,221.8 316.5,222.7 317,224.2 316.7,226.9 317.1,227.2 319.4,225.7 320.3,225.4 
				321.8,226.9 322.7,226.9 323.1,225.4 321.7,224.8 321.7,224.2 323.5,223.6 325.8,224.2 326.4,225.7 328.2,224.8 328.7,225.7 
				328.8,226.9 330.7,227.2 331.7,228.4 333.1,227.8 332.5,226.2 333.9,226.2 335.9,227.8 335.1,229.3 337.5,230.5 338.9,229.9 
				339.2,228.3 342,228.3 342.7,229.9 340.9,231.4 341.5,232.1 343.7,230.8 343.6,229.9 344.5,229.2 346.4,229.2 345.1,230.8 
				343.8,232 345.8,232 			"/>
			<polygon fill="none" stroke="#8C4647" stroke-width="1.798" stroke-miterlimit="10" points="343.5,366.7 346.2,368.4 
				348.3,369.6 349,370.8 350.4,371.4 352.3,370.8 352.2,369.6 352.1,368.4 350,366.7 349.1,364.3 348.3,362.6 348.2,362 
				346.9,361.4 345.6,361.4 345,361.4 343.8,362 342.4,361.4 341.8,360.8 339.8,360.3 336.6,360.8 334.7,360.3 332.1,359.7 
				328.9,360.8 327.6,360.2 326.9,359.7 324.4,359.1 323.7,358.5 323,356.3 322.8,352.4 322.8,351.3 321.5,350.8 320.9,349.6 
				320.2,349.1 317.7,348 316.4,347.5 315.8,345.8 314.5,344.2 312.6,343.2 308.9,342.6 306.4,341.6 304.6,342.1 304,343.2 
				303.4,344.8 302.8,345.8 300.3,346.3 299.7,346.9 298.4,348 297.2,348 292.2,345.8 291,346.3 288.5,348 286.6,348 285.3,348 
				284.2,346.3 281.8,345.2 278.8,343.7 275.1,342.6 271.5,341.5 270.9,341 270.5,338.4 269.3,337.9 268.7,338.9 269.2,340.5 
				268.5,340.5 263.7,339.9 248.7,338.4 238.6,336.8 234.4,336.3 220.4,333.7 207.9,330.7 199.4,328.7 195.5,327.7 184.5,324.7 
				181.8,323.8 175,321.3 166.1,318 158.2,314.2 151.8,311 148.7,308.7 149.3,306.9 149.5,306.5 150.8,306 149.8,305.6 150.1,304.7 
				148.4,304.7 148.6,304.2 147.3,301.6 147.8,300.3 149.2,299.4 150,297.2 148.9,297.2 147.9,298.5 146.9,298.1 147.2,297.2 
				146.6,296 146.4,295.1 145.6,294.2 144.8,292.2 144.7,290.9 144.5,290.1 144.8,289.2 145.5,288.8 147.6,288.8 147.9,288 
				149.1,286.3 149.8,285.9 151.4,285.9 152.4,285.9 152.7,285.1 153,284.3 152.1,283.9 150.4,284.3 150.3,283.1 150.1,282.3 
				150.3,281.5 150.5,281.1 151.3,280.3 152.1,279.5 152.4,278.7 153.1,278.3 154.4,277.5 155.8,276.8 155.9,276.3 155.1,275.6 
				153.7,276.8 152.6,276.8 153.1,275.6 153.3,274.8 154.3,273.7 154.6,272.9 154.8,272.1 154.8,271 155,270.2 156.1,270.2 
				157.2,269.8 158.5,269.1 159.3,268.3 161.6,267.6 162,266.5 162.3,265.7 162.7,264.6 163.3,262.8 162.6,262.1 161.6,262.1 
				161.5,261 162.2,260.2 163.5,259.5 164.9,258.4 165.4,257 165.8,256 167.8,254.2 168.7,251.8 169.3,250.1 168.9,248.4 
				169.2,247.7 170.4,247 169.8,246 169.5,245.3 167.6,245.4 167.1,245.4 164.9,246 164,246 163.5,246 161.3,246.7 161.1,246.1 
				161.8,245.4 162.7,244.4 163.6,243.1 164.9,242.1 166,240.4 167,239.2 167.6,237.5 166.6,237.6 165.7,237.6 164.8,237.6 
				163.3,237.6 163.7,236.6 163.2,236.6 208.2,213.8 209.9,215.4 211.7,215.7 211.9,216.2 213.4,217.7 213.7,218.2 215.3,218.8 
				215.9,220.2 218,219.1 220.8,218.8 224.8,218.8 228.6,220.2 227.6,220.5 224,220.2 221,219.7 223.8,221.1 228.2,221.7 
				230.2,221.1 232.2,220.2 232.9,221.1 231.6,223.1 232.7,224.6 235.6,223.7 234.8,225.5 237.9,225.8 239.5,227.6 242,228.8 
				244.3,231.8 248.4,232.8 248.5,235 246.2,235 246.3,237.2 255.2,238.5 258.7,245 261.2,240.1 259.6,237.8 267.2,237.1 267.4,240 
				274.9,243.3 279.3,242.6 283.3,241 286.4,246.6 288.5,242.2 292.6,237.7 287.9,234.8 291.5,227.9 291.9,227.3 293.3,228.6 
				296,233.8 294.5,236.1 300.2,238.6 301.2,241.5 303.6,237.6 306,240.2 305,243.8 308,245.5 309.4,243.2 311.8,240.8 311.2,236.9 
				313.6,235.3 319.4,237.6 319.1,240.8 318.2,242.5 321.7,245.5 321.2,246.5 320.3,247.8 319.4,248.8 316.9,249.6 314.9,247.8 
				314.4,248.9 315.5,250.2 314.5,250.6 310.5,248.9 309,249.6 310,250.6 310.5,251.3 309,252.3 307.6,253.8 305.5,253.1 
				300.1,251.3 300.1,252.4 303.5,254.8 309.1,255.5 308.1,257.3 306.1,259.8 301.5,260.9 298.9,262.4 295.9,260.9 293.8,261.7 
				292.8,260.6 286.8,258.8 283.8,258.1 283.3,258.8 283.3,259.2 283.8,259.9 291.3,260.9 294.3,262.4 295.3,263.5 295.3,265 
				293.2,265.3 289.7,264.2 288.1,265.4 288.6,266.1 290.1,266.1 290.6,266.1 289.5,268.8 288.4,269.9 287.3,271.4 284,274.1 
				283.5,275.3 283.3,277.2 282.2,278.4 282.2,279.2 281.6,280 281,281.6 280.4,282.8 280.9,283.7 281.4,284.1 282,283.7 
				282.5,284.1 283.5,284.9 284.1,284.9 285.1,284.9 286.2,284.9 286.8,284.9 287.2,286.1 287.7,288.2 287.6,289.8 288.1,291.9 
				288.6,293.6 288,294.1 286.3,295.3 284.7,295.3 283.5,295.8 282.9,296.2 282.9,296.7 284.6,296.2 286.8,295.8 291.3,294.9 
				294.1,294.1 295.2,293.6 297.4,294.1 299.6,294.9 301.2,295.8 302.4,295.8 303.5,295.8 304.6,295.8 306.2,296.2 306.8,297.1 
				307.4,299.2 307.9,299.2 310.2,301 313.6,301.4 315.3,301.9 315.9,303.2 316.5,304.1 318.8,304.6 319.3,304.6 321,303.7 
				322.7,303.7 325.5,304.1 327.8,303.7 329.5,303.7 329.5,304.1 329,305.9 328.6,307.7 329.2,309.5 329.9,311.4 330.6,312.8 
				331.2,313.7 330.8,315.6 331.4,317 333.2,318 334.4,318.4 335.1,319.9 335.8,321.3 337.6,321.3 338.8,322.8 339.6,324.8 
				339.7,325.8 340.9,326.2 342.1,325.8 343.2,325.8 344.5,326.2 345.5,323.8 348.4,323.3 346.3,320.4 346.7,318 345.9,315.6 
				344.6,314.2 343.9,312.8 344.8,310 341.8,308.6 341,305.9 343.7,304.1 346.8,301.4 350.2,296.2 353,295.7 350.5,293.6 348.6,291 
				344.9,286.8 340.3,284.8 339.2,284 339.5,281.5 341.4,279.1 341.2,276.3 339.5,275.2 338.8,273.2 337.2,273.2 337.1,271.7 
				338,269.8 334.8,268.6 334.6,266.8 336.5,264.1 340.6,264.1 342.3,266 344.8,265.2 346.7,263.3 349.3,263.3 351.8,266.7 
				355.3,265.9 356.1,267.8 358.2,268.6 359.2,267.8 361.4,268.6 363.4,267.8 364.9,267.8 363.1,269.7 365,272 364.8,274.3 
				366.2,275.9 369,277.1 369.7,277.8 371.7,277.1 373.4,277.8 373.4,281.1 375.3,279.8 374.9,277.1 377.6,277 378.1,274.3 
				381.8,277 379.5,273.1 380.3,271.6 378.8,269.7 378.9,267 379.5,267.4 381.1,267.8 382.3,268.5 383.6,269.7 386.4,270.4 
				387.6,271.2 389.6,273.1 391.9,274.2 395.3,275 396.1,276.2 396.8,277 398.4,277 399.7,277.8 401,279 401.5,281 402.2,281.8 
				403.6,283 404.8,283.4 407.5,283.4 408.7,283.8 410.6,284.7 413,285.5 413.8,284.7 416.3,285.9 417.7,284.7 418,283.8 
				418.5,283.8 419.3,284.6 421.5,284.6 422.6,284.6 422.8,285.5 421.9,286.3 421,286.7 420.4,288.8 419.2,290.5 417.9,291.8 
				417.9,293.9 418.2,294.8 418.3,295.2 419.4,295.2 419.9,295.2 420.2,293.9 420.4,292.6 420.7,291.8 422.1,290.9 422.1,288.8 
				422.8,287.5 423.2,286.7 424.8,286.7 425.4,286.7 427.8,287.5 429,287.9 431.8,287.9 433,288.3 433.7,288.8 435.6,291.3 
				437.1,292.6 439.2,293.9 439.7,295.6 438.4,296.9 437.9,298.7 438,299.1 436.3,299.1 435.8,301.3 432.1,302.2 433.2,305.8 
				431.1,308.6 431.5,310 427.6,312.8 422.3,314.6 411.2,317.5 405.1,318.9 403.8,321.3 405.3,325.3 401.4,326.8 398.4,332.8 
				397.4,340.1 396.6,342.2 395.4,345.9 389.7,348.7 387.2,352.5 386.4,355.3 385.5,357.5 383.9,359.2 381,361.5 379.2,362.7 
				376.3,365 374.2,368.5 372.7,371.5 370.8,372.1 369,373.2 365.8,373.8 363.1,373.2 360.5,373.8 358,375 355.5,376.8 355,378.7 
				355.1,379.3 355.8,379.3 359.1,379.3 360.4,379.3 360.5,379.9 360.6,380.6 360,381.2 358.7,381.8 356.8,382.4 355.4,382.4 
				353.6,384.3 351.6,384.9 349.6,384.9 347.6,384.9 345.7,386.8 344.5,388.7 341.3,390.6 339.3,391.2 338.6,391.2 337.9,390.6 
				337.8,389.9 337.8,388.7 339.8,388.7 340.5,388.7 341,387.4 340.3,386.1 341.4,383 341.9,381.1 343.9,380.5 344.4,378.7 
				343.5,375.6 344,373.2 345.1,370.8 345,369 344.2,367.8 343.5,367.2 			"/>
		</g>
	</g>
</g>
<rect x="33" y="405" fill="#8C4647" width="532" height="3.3"/>
<ellipse opacity="0.53" fill="#8C4647" enable-background="new    " cx="359.9" cy="347.1" rx="8.6" ry="0.9"/>
<g>
	
		<image overflow="visible" opacity="0.4" enable-background="new    " width="161" height="274" xlink:href="44A6DAAB944A9083.png"  transform="matrix(0.307 0 0 0.3078 338.0058 264.3306)">
	</image>
	<g>
		<path fill="#568D7F" d="M360.9,264.5c-24.6,0-22.5,27.7-22.5,27.7l22.4,53c0,0,19.8-45.8,22.1-51.3
			C385.1,288.2,384.5,264.5,360.9,264.5z M361,304c-9,0-16.3-7.3-16.3-16.3s7.3-16.3,16.3-16.3s16.3,7.3,16.3,16.3S370,304,361,304z
			"/>
	</g>
</g>
</svg>
