<?xml version="1.0" encoding="utf-8"?>
<!-- Generator: Adobe Illustrator 18.0.0, SVG Export Plug-In . SVG Version: 6.00 Build 0)  -->
<!DOCTYPE svg PUBLIC "-//W3C//DTD SVG 1.1//EN" "http://www.w3.org/Graphics/SVG/1.1/DTD/svg11.dtd">
<svg version="1.1" id="Layer_1" xmlns="http://www.w3.org/2000/svg" xmlns:xlink="http://www.w3.org/1999/xlink" x="0px" y="0px"
	 width="792px" height="1224px" viewBox="0 0 792 1224" enable-background="new 0 0 792 1224" xml:space="preserve">
<g>
	<g opacity="0.4">
		<polygon fill="none" stroke="#6D6E70" stroke-width="1.7979" stroke-miterlimit="10" points="746.9,901.7 45.4,901.7 186.6,630.6 
			605.6,630.7 		"/>
	</g>
	<g>
		<polygon fill="none" stroke="#6D6E70" stroke-width="1.7979" stroke-miterlimit="10" points="745.4,900.3 44,900.1 185.2,629.3 
			604.2,629.3 		"/>
	</g>
</g>
<g>
	<g id="XMLID_1_">
		<g>
			<polygon fill="none" stroke="#6D6E70" stroke-width="1.798" stroke-miterlimit="10" points="366.4,656.2 366.3,657.8 
				365.6,658.2 365.1,658.6 364.5,658.6 363.9,658.2 363.9,657 363.4,655.9 361.7,655.9 361.2,655.1 362.3,654.3 364.2,653.9 
				365.4,654.3 365.9,655.1 			"/>
			<polygon fill="none" stroke="#6D6E70" stroke-width="1.798" stroke-miterlimit="10" points="428.1,658.7 428.1,659.5 
				427.5,660.3 427,660.3 425.7,660.3 425.2,660.3 424,660.3 422.7,660.3 420.8,660.3 420.8,659.5 420.2,658.7 419.5,658.3 
				418.3,657.9 417.8,657.5 417.6,656.7 417.6,656.1 418.8,656.1 420,655.9 421.9,655.7 422.5,655.7 423.7,655.7 424.2,655.7 
				424.2,655.9 424.9,656.7 425,657.5 426.2,657.5 427.4,657.9 427.4,658.3 			"/>
			<polygon fill="none" stroke="#6D6E70" stroke-width="1.798" stroke-miterlimit="10" points="185.2,732 185.6,730.9 186.6,728.3 
				188.2,727.7 189.7,725.7 190.7,723.2 191.8,722.2 193.8,720.7 194.3,720.7 194.7,721.8 195.1,722.2 194.8,723.2 195.5,723.2 
				196.8,723.2 197.1,724.3 196.3,724.7 194.7,725.2 193.8,725.7 192.1,726.8 190.6,726.8 190.7,728.3 191.1,729.3 189.9,730.4 
				189,730.9 188,732 187.8,733.9 186.9,734.5 185.6,734.5 185.9,733.9 			"/>
			<polygon fill="none" stroke="#6D6E70" stroke-width="1.798" stroke-miterlimit="10" points="193,767.7 193.1,771.3 191.1,773.1 
				190.6,774.3 190.3,774.9 189.2,776 186.6,774.9 186,774.9 186.8,772.5 187.4,770.6 187.2,769.4 187.2,767.7 185.6,767.7 
				185.3,766.5 186,764.8 185.5,764.2 184.9,763.6 185.5,762.4 184.5,760.7 184.8,760.2 185.7,757.8 186.1,756.8 184.7,756.8 
				183.5,756.2 183,755.6 183.6,753.9 185.5,752.8 184.9,752.3 184,751.2 183.9,749.5 185.1,748.5 185.7,748.5 187.2,748.5 
				187.8,748.5 188.9,749.5 189.7,751.2 189.3,753.9 191.4,756.2 191.9,756.8 193,757.8 193,761.9 191.8,764.8 192.7,766.5 			"/>
			<polygon fill="none" stroke="#6D6E70" stroke-width="1.798" stroke-miterlimit="10" points="511,839.7 512.3,837.4 512.4,833.7 
				514.4,830.8 516.4,827.9 521,825.8 524,824.4 526,821.4 526.9,817.9 530.2,817.9 529.5,822.1 528.3,825 528.8,827.3 530.9,829.4 
				531.2,830.8 529.7,836 526.3,836 525.8,837.6 525.2,839 523.6,839.7 518.6,840.5 513.7,841.2 504,844.3 504.6,842.7 507,841.9 
							"/>
			<polygon fill="none" stroke="#6D6E70" stroke-width="1.798" stroke-miterlimit="10" points="574.3,817.2 574.2,816.6 
				575.7,815.9 577.2,815.9 578.3,816.6 579.9,816.6 582,815.2 585.3,815.2 589.1,814.5 591.2,813.1 593.6,813.1 595.7,814.5 
				596,815.2 594.8,816.6 592,818.7 589.8,822.2 587.9,824.4 584.9,825.1 584.5,826.5 584.2,828.7 582.5,828.7 580.9,828.7 
				579.7,831 580.4,833.1 579.6,836.1 579.1,837.6 577.9,839.1 578.3,840.6 576.7,841.4 575.9,841.4 573.8,839.8 570.4,839.8 
				569.3,839.1 567.5,835.3 567.9,833.1 569.1,831.6 571,829.5 572,826.5 572.4,825.1 574.6,824.4 577.4,825.1 578,824.4 
				576.7,822.9 579.1,822.2 579.5,820.8 578.3,819.3 577.6,820.1 575.4,820.8 573.7,820.8 572.6,820.1 572.4,818.7 572.7,817.2 			
				"/>
			<polygon fill="none" stroke="#6D6E70" stroke-width="1.798" stroke-miterlimit="10" points="585.3,801.5 584.9,800.2 
				586.5,800.2 588.1,800.2 588.3,800.9 589.1,803.5 589.2,804.2 589.9,806.3 590.7,806.3 593.6,804.8 593.7,805.5 594,806.3 
				594.1,806.9 594.8,808.9 593.6,810.4 592.4,811.7 591.6,811.7 588.5,812.3 586.5,811 585,808.9 584.5,806.9 585.7,805.5 
				585.7,802.8 			"/>
			<polygon fill="none" stroke="#6D6E70" stroke-width="1.798" stroke-miterlimit="10" points="566.4,808.9 566.8,810.4 
				567.6,810.4 572.5,810.4 573.9,809.6 575.1,808.2 576.4,806.9 578,806.9 579,807.6 579.2,808.2 579,810.4 578.6,811.7 
				580.4,812.3 580.5,813.1 579,813.1 578.2,813.1 575.7,813.1 574.1,813.1 571.8,813.8 569.2,813.1 568.3,813.1 567.5,813.1 
				566.7,813.1 566.5,812.3 565.2,810.4 564.8,808.9 564.6,808.2 566.3,808.2 			"/>
			<polygon fill="none" stroke="#6D6E70" stroke-width="1.798" stroke-miterlimit="10" points="566.4,815.1 569.4,814.5 
				571.2,814.5 569.8,815.9 570.9,816.6 569.4,817.2 569.1,818.7 567.2,818 567.5,819.3 567.5,822.2 566.1,823.7 563.2,825.1 
				561.4,827.9 559.2,828.7 556.8,829.4 557.2,830.8 555.5,830.8 555.3,830.2 552.6,829.4 552,827.3 551.1,826.5 547.8,826.5 
				546.6,825 542.5,818 541.7,814.5 540.8,813.8 539.1,813.8 538.4,814.5 537.9,815.8 534.9,816.6 534.1,816.6 532,814.5 
				530.2,817.9 526.9,817.9 527.9,814.5 528.5,809.6 531.7,805.5 534.2,802.2 537.2,798.2 540,796.1 543.6,794.3 546.3,792.9 
				550.2,792.3 552.6,792.3 553.5,792.9 554.7,794.3 556.4,794.9 556.6,796.2 556.2,797.4 553.3,798.9 552.9,800.2 552.3,800.9 
				549.9,800.9 548.5,801.5 547.9,802.8 547.7,804.8 550,804.8 551.8,805.5 553.3,805.5 553.9,804.2 555.5,804.2 556.5,804.8 
				557.4,805.5 557.2,807.6 557.4,808.9 560.7,808.9 561.7,809.6 562.5,812.3 			"/>
			<polygon fill="none" stroke="#6D6E70" stroke-width="1.798" stroke-miterlimit="10" points="551.5,785.3 555.3,784.6 
				556.8,784.6 559.2,784.6 563.2,785.3 565.4,784.6 566.9,784.6 568.1,785.8 568.3,786.5 568.4,787.1 566.3,787.8 564.7,787.8 
				563.4,788.4 559.3,787.8 556.1,787.8 554.1,786.5 551.9,786.5 550.3,786.5 549.5,786.5 			"/>
			<polygon fill="none" stroke="#6D6E70" stroke-width="1.798" stroke-miterlimit="10" points="619.9,775.9 620.4,777.1 
				621.9,778.9 622.6,777.1 623.4,777.1 624.2,777.1 625.3,777.6 625.4,780.3 626.1,782.1 626.9,784 625.7,785.3 624.9,785.3 
				623.7,784 623.2,784.6 621.9,785.3 621.1,785.3 620.3,785.3 618.8,783.3 618.8,781.5 618.2,779.6 617.2,778.9 616.2,778.3 
				616.7,779.6 615.8,781.5 615.6,783.3 614.6,784.6 615.3,786.5 615.1,788.4 614.9,789.6 613.3,789.6 611.7,789.6 611.4,789.1 
				611.2,788.4 612.1,786.5 612.7,784 612.1,782.1 610.5,782.1 609.4,783.3 609.3,785.3 608.5,785.3 606.8,784.6 606,784.6 
				605.6,785.8 603.5,786.5 596.5,789.1 594.3,789.6 592,792.3 589.8,792.9 588.2,792.9 586.5,792.3 587.3,789.6 587.8,786.5 
				587.7,785.8 589.8,785.3 587.9,784.6 587,784 585.8,785.3 584.4,785.3 583.3,784.6 582.9,783.3 583.7,783.3 584.6,781.5 
				585.8,780.3 586.1,778.4 584.9,777.1 583.7,773.4 581.1,769.8 581.7,766.8 579.5,764.4 580,761.5 579.3,759.1 582.3,756.9 
				583.6,756.2 584.4,756.2 584.8,757.4 585,758.6 583.4,760.3 584.1,762.7 586.2,764.4 587.1,767.5 588.1,770.4 588.3,771 
				589.2,771.6 590.6,771 590,769.2 591.8,767.3 593.2,767.3 594.3,770.4 596.4,769.7 598.2,771 599.9,771.6 603.1,769.7 
				603.9,767.3 605.1,766.8 607.5,766.8 608.4,767.3 608.7,770.4 609.3,772.2 610.5,773.4 612.1,773.4 612.3,772.2 613.3,770.4 
				613.4,768.5 615.1,769.2 616.2,772.2 616.7,773.4 615.4,774.1 616,775.9 616.3,776.4 618.8,777.1 618.6,776.4 617.6,774.1 
				618.2,773.4 619.2,774.1 619.5,774.6 			"/>
			<polygon fill="none" stroke="#6D6E70" stroke-width="1.798" stroke-miterlimit="10" points="438.2,718.1 438.4,719.1 
				437.8,721.7 436.5,721.7 435.7,721.7 434.9,720.1 434.3,720.1 434.1,718.6 435.5,717.7 436.1,716.6 437.6,717.7 			"/>
			<polygon fill="none" stroke="#6D6E70" stroke-width="1.798" stroke-miterlimit="10" points="427.2,714.3 427.9,715.2 
				427.3,716.6 426,717.7 424.6,718.2 424,718.6 423.3,719.1 421.9,719.1 421.2,719.1 419.9,719.1 419.1,719.1 419.1,718.2 
				419.8,716.6 421.1,715.2 422.4,715.2 423.9,715.7 424.5,715.2 425.8,714.3 			"/>
			<polygon fill="none" stroke="#6D6E70" stroke-width="1.798" stroke-miterlimit="10" points="439.7,683.4 440.5,684.2 440,686.4 
				440.1,687.7 439.4,688.7 437.6,688.7 436.1,687.7 435.5,686.4 435.3,684.2 435.3,683.4 436.5,683.4 437.7,682.5 439,682.5 			"/>
			<polygon fill="none" stroke="#6D6E70" stroke-width="1.798" stroke-miterlimit="10" points="374.4,676.4 375,675.5 375.7,675.5 
				376.2,676.4 376.9,676.4 376.7,677.2 377.4,677.6 378.6,679.3 379.1,680.1 380.4,680.6 380.4,681.4 380.4,682.2 379.8,682.7 
				379,683.5 378.4,683.5 377.1,683.5 376.5,682.7 375.3,682.3 373.4,681.4 371.6,680.6 370.9,680.1 371.1,679.3 371.6,679.3 
				372.9,678.5 373.7,677.6 373.7,677.2 			"/>
			<polygon fill="none" stroke="#6D6E70" stroke-width="1.798" stroke-miterlimit="10" points="394.2,655.7 394.2,657.6 393,658.4 
				392.8,660.4 392.8,661.6 392.2,662.4 391,662.4 389.8,662.4 389.1,661.6 388.6,661.6 387.9,661.6 387.9,662.4 388.5,663.2 
				388.5,664.4 388.5,665.2 387.8,665.2 386.6,665.2 386,665.2 385.4,663.6 384.9,662.4 384.9,661.6 385.6,660.4 385.6,659.6 
				385,658.2 385,657.6 385,657 386.4,655.8 387.6,655 388.7,655 389.3,655.8 390.5,655.8 393,655.7 393.5,655.7 			"/>
			<polygon fill="none" stroke="#6D6E70" stroke-width="1.798" stroke-miterlimit="10" points="379.1,657 380.3,656.2 380.8,656.2 
				381.5,657 381.3,658.2 380.7,658.8 379.5,659.6 378.8,660.4 379.5,660.9 380.6,661.6 381.2,661.6 381.7,662.4 381.7,663.2 
				381.1,664.4 379.9,665.6 378.6,667.3 377.3,667.7 375.4,668.5 374.7,667.7 373.7,665.7 372.5,664.5 370.8,663.3 369.6,662.5 
				369.1,662.5 369.2,660.5 369.9,659.7 370.4,659.7 370.9,660.5 372.1,660.9 372.6,661.7 374,661.7 374.6,660.5 375.3,659 
				374.7,657.8 374.2,657.8 374.2,657 374.2,656.2 374.9,655.8 376.1,655.8 377.3,656.2 377.8,657 			"/>
			<polygon fill="none" stroke="#6D6E70" stroke-width="1.798" stroke-miterlimit="10" points="365,675.1 363.1,675.1 361.8,675.6 
				361.2,676.4 361,677.3 361.7,677.3 362.3,677.2 363,677.2 364.2,677.2 364.8,677.6 364.1,679.4 363.4,679.4 361.4,680.2 
				359.6,680.2 354.8,677.3 353.6,676.4 353,676.4 353.1,675.2 351.9,675.2 351.3,675.2 350.6,675.6 349.8,676.4 348,676.5 
				346.8,676.5 345.4,676.5 344.1,677.3 342.3,677.3 340.3,677.3 338.6,676.5 337.4,676.5 334.9,676.5 333.6,676.5 333,675.7 
				333.2,675.3 333.3,673.6 334.2,672.3 330.7,670.7 328.4,669.5 326.7,668.7 326.8,667.5 327,666.7 328.3,665.8 329.6,665.8 
				331.8,666.6 334.9,667.4 337.8,667.8 339.6,668.6 340.3,668.6 341,667.8 341,667.4 339.9,666.6 336.5,664.6 334.1,663.8 
				330.5,663 330,662.7 328.8,662.7 328.3,661.9 329.7,660.7 330.9,660.7 332.1,660.7 334,661.1 335.7,661.1 336.9,661.1 337,660.7 
				335.3,659.9 333.6,659.1 331.8,658.7 330.7,658.3 330.9,657.2 332.6,657.2 333.8,657.2 335.4,654.5 336.2,653.7 336.9,653.3 
				338.1,653.3 339.8,653.3 340.3,653.7 342.1,653.3 342.8,653.3 344.1,652.5 345.3,652.5 345.8,652.5 346.4,653.3 346.2,654.1 
				345.6,654.5 344.9,655.3 343.7,655.3 343.6,655.9 344.3,655.9 344.8,655.9 346.6,655.9 347.8,655.9 348.5,655.9 348.9,657.1 
				348.7,657.9 347.6,657.9 346.9,658.3 347.6,658.7 348.1,658.7 349.9,658.7 350.6,658.3 352.6,657.1 353.8,657.1 354.9,657.1 
				355.3,658.7 354.7,659.7 353.9,661.7 353.8,662.9 354.9,663.3 355.5,663.7 356.7,663.3 356.8,662.5 356.9,660.9 357.2,658.6 
				357.3,657.1 358,656.3 359.3,655.9 359.8,655.9 362.7,657.8 362.7,658.2 361.9,658.6 362.5,660.5 361.7,662.5 360.9,665.3 
				360.6,667.4 361.2,668.6 361.8,668.6 363,668.6 363.7,668.6 364.2,669.4 364.1,670.6 364.6,672.2 365.8,672.7 367,673.5 
				367.6,673.5 367.6,674.3 366.8,675.5 366.2,675.5 			"/>
			<polygon fill="none" stroke="#6D6E70" stroke-width="1.798" stroke-miterlimit="10" points="410,699.5 411.2,697.2 411.8,697.2 
				413.2,697.2 412.5,698.6 413.3,699.5 414.6,700.4 415.3,700.4 415.9,700.4 417.3,700.4 417.3,701.9 419.2,702.8 422,703.7 
				424.6,703.7 425.3,704.1 426,704.1 425.4,706.1 426.1,707 426.8,707.4 427.4,707.4 429.4,707 430.2,707 430.8,707.4 431,709.4 
				431,709.8 430.3,710.8 429,710.8 427,710.8 425.6,709.8 424.9,709.4 423.5,708.5 422.8,707.5 422.1,707.5 421.5,707.5 
				421.5,708.5 420.8,709.4 419.5,709.4 418.8,709.4 418.2,709.9 417.5,711.8 416.9,713.2 415.5,714.3 414.9,714.3 414.2,711.8 
				412.9,711.8 412.1,711.8 410.1,711.8 408.8,711.8 408.1,711.8 408.1,709.9 408.8,709.4 410.1,708.5 410.8,707.5 410.7,706.1 
				409.3,705.2 408.7,704.2 			"/>
			<polygon fill="none" stroke="#6D6E70" stroke-width="1.798" stroke-miterlimit="10" points="459,672.2 460.8,671.8 461.6,673.1 
				460.4,673.9 457.9,673.9 455.4,674.7 458.2,676.8 461.3,676.8 464.8,678.9 467.4,678.9 469.8,678.1 471.1,678.1 472.4,678.9 
				472,680.2 473.5,681 476,681 477,680.1 477.8,681 478.6,681.9 481.7,681 483.6,681 485.1,681.8 484.7,683.1 482.7,683.1 
				482.9,684 483.6,685.4 484.3,685.4 484.7,687.1 482.7,687.1 482.9,688.4 485,689.3 485.4,691.6 483.4,691.6 481.9,690.6 
				480.7,690.6 479.3,690.2 476.9,687.1 475.5,686.3 471.6,687.2 467.8,687.2 469.9,688.5 470.1,689.3 467.5,689.3 466.9,689.3 
				468.9,690.6 471.1,692.5 473.1,692.5 475.5,694.7 477.8,693.8 480.6,694.7 481.7,697 486.4,697.9 486,699.2 486.4,701.6 
				489.5,704 490.2,704.9 485,704.9 477,701.6 476.5,702.5 473.9,702.5 473.4,704 479.7,705.8 481.9,707.3 486.7,707.3 488.8,708.2 
				487.3,711.6 478.2,709.8 474.1,709.8 471.5,709.2 466.8,709.8 463.1,707.4 463.5,705 460.8,705 455.3,703.6 453,700.3 
				450.4,700.3 451.3,703.6 447.9,702.6 446,704.1 440.7,705 436.5,702.6 438.2,698.6 440.9,698.4 444.8,698.4 450,697.1 
				449.9,695.8 447.7,693.9 448.8,691.7 450.5,689.4 455.1,689.4 457.9,690.8 460.4,690.8 462.3,689.3 460.7,687.2 455.5,687.2 
				455.7,688.5 453,688.5 450.4,687.2 450.8,685 450.1,684.2 441.3,678.1 434.8,676.9 432.8,675.2 430.2,673.2 427,671.9 425,672 
				427.2,674.8 426.5,675.3 422.1,674 419.5,674 416.5,676.1 408.9,674.1 405.1,674.1 400.8,672 400.1,670 401.4,670 403.8,670.4 
				404.4,669.1 401.4,669.1 400.8,667.5 398.2,667.1 397.7,665.2 398.4,662.4 400.2,660.4 404.3,656.8 406.8,656.1 407.5,657.6 
				406.8,659.6 404.4,661.5 403.8,663 404.4,664.2 407.6,666.3 408.1,669.1 409.5,669.9 411.3,669.9 412.5,667.5 410.7,666.2 
				410,665 410.5,664.2 410.5,663 409.3,662.3 408.7,662.3 409.3,660.3 412.2,657.9 414.6,656.1 415.3,656.1 416.5,656.8 
				416.5,657.5 416.6,658.3 417.8,659.5 418.4,661.5 418,665 418.6,665.4 421.6,663.4 422.8,663 424.8,665 426,665 426.5,663 
				424.6,662.3 424.6,661.5 427,660.7 430.1,661.5 430.8,663.4 433.2,662.3 433.9,663.4 434,665 436.5,665.4 437.8,667 439.7,666.2 
				438.9,664.1 440.7,664.1 443.4,666.2 442.3,668.2 445.5,669.8 447.3,669 447.7,666.9 451.4,666.9 452.4,669 450,671 450.8,671.9 
				453.7,670.2 453.6,669 454.7,668.1 457.2,668.1 455.5,670.2 453.8,671.8 456.5,671.8 			"/>
			<polygon fill="none" stroke="#6D6E70" stroke-width="1.798" stroke-miterlimit="10" points="453.4,849.6 457,851.8 459.8,853.4 
				460.7,855 462.5,855.8 465,855 464.9,853.4 464.8,851.8 462,849.6 460.8,846.4 459.8,844.2 459.6,843.4 457.9,842.6 456.2,842.6 
				455.4,842.6 453.8,843.4 452,842.6 451.2,841.8 448.5,841.1 444.3,841.8 441.8,841.1 438.4,840.3 434.1,841.8 432.4,841 
				431.5,840.3 428.2,839.5 427.3,838.7 426.4,835.8 426.1,830.7 426.1,829.2 424.4,828.6 423.6,827 422.7,826.3 419.4,824.9 
				417.6,824.2 416.9,822 415.1,819.9 412.6,818.5 407.7,817.8 404.4,816.4 402.1,817.1 401.3,818.5 400.5,820.7 399.7,822 
				396.4,822.6 395.6,823.4 393.9,824.9 392.3,824.9 385.7,822 384.1,822.6 380.8,824.9 378.3,824.9 376.6,824.9 375.1,822.6 
				372,821.2 368,819.2 363.1,817.8 358.4,816.3 357.6,815.6 357.1,812.2 355.5,811.5 354.7,812.9 355.3,815 354.4,815 348.1,814.2 
				328.3,812.2 315,810.1 309.4,809.4 290.9,806 274.4,802 263.2,799.4 258.1,798.1 243.5,794.1 240,792.9 231,789.6 219.3,785.3 
				208.8,780.3 200.4,776 196.3,773 197.1,770.6 197.3,770.1 199.1,769.4 197.7,768.9 198.1,767.7 195.9,767.7 196.2,767.1 
				194.4,763.6 195.1,761.9 196.9,760.7 198,757.8 196.5,757.8 195.2,759.5 193.9,759 194.3,757.8 193.5,756.2 193.2,755.1 
				192.2,753.9 191.1,751.2 191,749.5 190.7,748.5 191.1,747.3 192.1,746.7 194.8,746.7 195.2,745.7 196.8,743.4 197.7,742.9 
				199.8,742.9 201.2,742.9 201.6,741.9 202,740.8 200.8,740.3 198.5,740.8 198.4,739.2 198.1,738.2 198.4,737.1 198.7,736.6 
				199.7,735.5 200.8,734.5 201.2,733.4 202.1,732.9 203.8,731.8 205.7,730.9 205.8,730.2 204.7,729.3 202.9,730.9 201.4,730.9 
				202.1,729.3 202.4,728.3 203.7,726.8 204.1,725.7 204.3,724.7 204.3,723.2 204.6,722.2 206.1,722.2 207.5,721.7 209.2,720.7 
				210.3,719.7 213.3,718.8 213.8,717.3 214.2,716.2 214.8,714.8 215.6,712.4 214.6,711.5 213.3,711.5 213.2,710 214.1,709 
				215.8,708.1 217.7,706.6 218.3,704.8 218.9,703.4 221.5,701.1 222.7,697.9 223.5,695.7 222.9,693.4 223.3,692.5 224.9,691.6 
				224.1,690.2 223.7,689.3 221.2,689.4 220.6,689.4 217.7,690.2 216.5,690.2 215.8,690.2 212.9,691.2 212.7,690.4 213.6,689.4 
				214.8,688.1 216,686.4 217.7,685.1 219.1,682.8 220.4,681.3 221.2,679 219.9,679.2 218.7,679.2 217.5,679.2 215.6,679.2 
				216.1,677.8 215.4,677.8 274.8,647.7 277.1,649.8 279.4,650.2 279.7,650.9 281.7,652.9 282.1,653.5 284.2,654.3 285,656.2 
				287.8,654.7 291.5,654.3 296.7,654.3 301.8,656.2 300.4,656.6 295.7,656.2 291.7,655.5 295.4,657.4 301.2,658.2 303.9,657.4 
				306.5,656.2 307.4,657.4 305.7,660 307.2,662 311,660.8 309.9,663.2 314,663.6 316.1,666 319.4,667.5 322.5,671.5 327.9,672.8 
				328,675.7 325,675.7 325.1,678.6 336.9,680.3 341.5,688.9 344.8,682.5 342.7,679.4 352.7,678.5 353,682.3 362.9,686.7 
				368.7,685.8 374,683.6 378,691 380.8,685.2 386.2,679.3 380,675.5 384.8,666.3 385.3,665.6 387.2,667.3 390.7,674.1 388.7,677.2 
				396.3,680.5 397.6,684.3 400.8,679.2 403.9,682.6 402.6,687.3 406.6,689.6 408.4,686.5 411.6,683.4 410.8,678.2 414,676.1 
				421.6,679.2 421.2,683.4 420,685.6 424.6,689.6 424,690.9 422.8,692.6 421.6,693.9 418.3,695 415.7,692.6 415,694.1 416.5,695.8 
				415.1,696.3 409.9,694.1 407.9,695 409.2,696.3 409.9,697.2 407.9,698.6 406,700.5 403.3,699.6 396.1,697.2 396.1,698.7 
				400.6,701.9 408,702.8 406.7,705.2 404.1,708.5 398,709.9 394.5,711.9 390.6,709.9 387.8,711 386.5,709.5 378.6,707.1 
				374.6,706.2 374,707.1 374,707.7 374.6,708.6 384.5,709.9 388.5,711.9 389.8,713.3 389.8,715.3 387,715.7 382.4,714.3 
				380.3,715.8 381,716.8 382.9,716.8 383.6,716.8 382.1,720.3 380.7,721.8 379.2,723.8 374.9,727.3 374.2,728.9 374,731.4 
				372.5,733 372.5,734.1 371.7,735.1 370.9,737.2 370.1,738.8 370.8,740 371.4,740.5 372.2,740 372.9,740.5 374.2,741.6 375,741.6 
				376.3,741.6 377.8,741.6 378.6,741.6 379.1,743.2 379.8,745.9 379.6,748.1 380.3,750.8 381,753.1 380.2,753.7 377.9,755.3 
				375.8,755.3 374.2,756 373.4,756.5 373.4,757.2 375.7,756.5 378.6,756 384.5,754.8 388.2,753.7 389.7,753.1 392.6,753.7 
				395.5,754.8 397.6,756 399.2,756 400.6,756 402.1,756 404.2,756.5 405,757.7 405.8,760.5 406.4,760.5 409.5,762.8 414,763.4 
				416.2,764 417,765.7 417.8,766.9 420.8,767.6 421.5,767.6 423.7,766.4 426,766.4 429.7,766.9 432.7,766.4 434.9,766.4 
				434.9,766.9 434.3,769.3 433.8,771.7 434.5,774.1 435.5,776.6 436.4,778.4 437.2,779.6 436.7,782.1 437.4,784 439.8,785.3 
				441.4,785.8 442.3,787.8 443.3,789.6 445.6,789.6 447.2,791.6 448.3,794.3 448.4,795.6 450,796.1 451.6,795.6 453,795.6 
				454.7,796.1 456.1,792.9 459.9,792.3 457.1,788.4 457.6,785.3 456.6,782.1 454.9,780.3 453.9,778.4 455.1,774.7 451.2,772.9 
				450.1,769.3 453.7,766.9 457.8,763.4 462.3,756.5 466,755.8 462.7,753.1 460.2,749.6 455.3,744.1 449.2,741.5 447.7,740.4 
				448.1,737.1 450.6,733.9 450.4,730.2 448.1,728.8 447.2,726.1 445.1,726.1 445,724.2 446.2,721.7 441.9,720.1 441.7,717.7 
				444.2,714.1 449.6,714.1 451.8,716.6 455.1,715.6 457.6,713.1 461.1,713.1 464.4,717.6 469,716.5 470.1,719 472.8,720.1 
				474.1,719 477,720.1 479.7,719 481.7,719 479.3,721.5 481.8,724.6 481.5,727.6 483.4,729.7 487.1,731.3 488,732.2 490.6,731.3 
				492.9,732.2 492.9,736.6 495.4,734.9 494.9,731.3 498.4,731.2 499.1,727.6 504,731.2 500.9,726 502,724 500,721.5 500.1,718 
				500.9,718.5 503.1,719 504.6,719.9 506.4,721.5 510,722.4 511.6,723.5 514.3,726 517.3,727.5 521.8,728.5 522.9,730.1 
				523.8,731.2 525.9,731.2 527.6,732.2 529.3,733.8 530,736.4 530.9,737.5 532.8,739.1 534.3,739.6 537.9,739.6 539.5,740.1 
				542,741.3 545.2,742.4 546.2,741.3 549.5,742.9 551.4,741.3 551.8,740.1 552.4,740.1 553.5,741.2 556.4,741.2 557.8,741.2 
				558.1,742.4 556.9,743.4 555.7,744 554.9,746.7 553.3,749 551.6,750.7 551.6,753.5 552,754.7 552.2,755.2 553.6,755.2 
				554.3,755.2 554.7,753.5 554.9,751.8 555.3,750.7 557.2,749.5 557.2,746.7 558.1,745 558.6,744 560.7,744 561.5,744 564.7,745 
				566.3,745.5 570,745.5 571.6,746.1 572.5,746.7 575,750 577,751.8 579.7,753.5 580.4,755.7 578.7,757.4 578,759.8 578.2,760.3 
				575.9,760.3 575.3,763.2 570.4,764.4 571.8,769.2 569.1,772.9 569.6,774.7 564.4,778.4 557.4,780.8 542.8,784.6 534.7,786.5 
				533,789.6 535,794.9 529.8,796.9 525.9,804.8 524.6,814.5 523.5,817.2 521.9,822.1 514.4,825.8 511.1,830.8 510,834.5 
				508.9,837.4 506.7,839.7 502.9,842.7 500.5,844.3 496.7,847.3 493.9,851.9 492,855.9 489.5,856.7 487.1,858.1 482.9,858.9 
				479.3,858.1 475.9,858.9 472.6,860.5 469.3,862.9 468.6,865.4 468.7,866.2 469.7,866.2 474,866.2 475.7,866.2 475.9,867 
				476,867.9 475.2,868.7 473.5,869.5 471,870.3 469.1,870.3 466.8,872.8 464.1,873.6 461.5,873.6 458.8,873.6 456.3,876.1 
				454.7,878.6 450.5,881.1 447.9,881.9 447,881.9 446,881.1 445.9,880.2 445.9,878.6 448.5,878.6 449.5,878.6 450.1,876.9 
				449.2,875.2 450.6,871.1 451.3,868.6 453.9,867.8 454.6,865.4 453.4,861.3 454.1,858.1 455.5,855 455.4,852.6 454.3,851 
				453.4,850.2 			"/>
		</g>
	</g>
</g>
<rect x="43.6" y="900.1" fill="#6D6E70" width="702.2" height="4.4"/>
<ellipse opacity="0.53" fill="#6D6E70" enable-background="new    " cx="475.1" cy="823.7" rx="11.4" ry="1.2"/>
<g>
	<g opacity="0.4">
		<path fill="#6D6370" d="M477.4,716.7c-32.5,0-29.7,36.6-29.7,36.6l29.6,70c0,0,26.1-60.5,29.2-67.7
			C509.3,747.9,508.5,716.7,477.4,716.7z M477.5,768.8c-11.9,0-21.5-9.6-21.5-21.5s9.6-21.5,21.5-21.5s21.5,9.6,21.5,21.5
			S489.4,768.8,477.5,768.8z"/>
	</g>
	<g>
		<g>
			<g>
				<path fill="#35969F" d="M476.4,714.7c-32.5,0-29.7,36.6-29.7,36.6l29.6,70c0,0,26.1-60.5,29.2-67.7
					C508.3,745.9,507.5,714.7,476.4,714.7z M476.5,766.8c-11.9,0-21.5-9.6-21.5-21.5s9.6-21.5,21.5-21.5s21.5,9.6,21.5,21.5
					S488.4,766.8,476.5,766.8z"/>
			</g>
		</g>
	</g>
</g>
</svg>
