<?xml version="1.0" encoding="utf-8"?>
<!-- Generator: Adobe Illustrator 18.0.0, SVG Export Plug-In . SVG Version: 6.00 Build 0)  -->
<!DOCTYPE svg PUBLIC "-//W3C//DTD SVG 1.1//EN" "http://www.w3.org/Graphics/SVG/1.1/DTD/svg11.dtd">
<svg version="1.1" id="Layer_1" xmlns="http://www.w3.org/2000/svg" xmlns:xlink="http://www.w3.org/1999/xlink" x="0px" y="0px"
	 viewBox="-5.5 -5.5 611 611" enable-background="new -5.5 -5.5 611 611" xml:space="preserve">
<g>
	<g opacity="0.4">
		<polygon fill="none" stroke="#A04A39" stroke-width="13" stroke-miterlimit="10" points="425.6,244.9 425.6,199.2 425.6,192.4 
			418.8,192.4 373.2,192.4 373.2,244.9 		"/>
		<path fill="none" stroke="#A04A39" stroke-width="13" stroke-miterlimit="10" d="M305.9,367c30.2,0,54.9-24.7,54.9-54.9
			c0-11.7-3.7-22.8-10.5-32.1c-9.9-13.6-25.9-22.8-44.4-22.8s-34.5,9.3-44.4,22.8c-6.8,9.3-10.5,19.7-10.5,32.1
			C251,342.3,275.7,367,305.9,367z"/>
		<path fill="none" stroke="#A04A39" stroke-width="13" stroke-miterlimit="10" d="M307.8,21.6c-157.9,0-286.2,128.3-286.2,286.2
			C21.6,465.7,149.9,594,307.8,594S594,465.7,594,307.8C594,149.3,465.7,21.6,307.8,21.6z M461.4,280v127.7
			c0,33.3-27.1,59.8-60.5,59.8H209.7c-33.3,0-60.5-27.1-60.5-59.8V280v-63.5c0-33.3,27.1-60.5,60.5-60.5h191.2
			c33.3,0,60.5,27.1,60.5,60.5V280z"/>
		<path fill="none" stroke="#A04A39" stroke-width="13" stroke-miterlimit="10" d="M391.1,312.1c0,46.9-38.2,85.1-85.1,85.1
			s-85.1-38.2-85.1-85.1c0-11.1,2.5-22.2,6.2-32.1h-46.3v127.7c0,16.7,13.6,29.6,29.6,29.6h191.2c16.7,0,29.6-13.6,29.6-29.6V280
			h-46.3C388.6,289.9,391.1,300.4,391.1,312.1z"/>
	</g>
	<g>
		<g>
			<polygon fill="none" stroke="#8C4647" stroke-width="13" stroke-miterlimit="10" points="412.6,231.9 412.6,185.7 412.6,178.9 
				405.9,178.9 359.6,179.5 360.2,231.9 			"/>
			<path fill="none" stroke="#8C4647" stroke-width="13" stroke-miterlimit="10" d="M293,353.4c30.2,0,54.9-24.7,54.9-54.9
				c0-11.7-3.7-22.8-10.5-32.1c-9.9-13.6-25.9-22.8-44.4-22.8s-34.5,9.3-44.4,22.8c-6.8,9.3-10.5,19.7-10.5,32.1
				C238.1,328.8,262.8,353.4,293,353.4z"/>
			<path fill="none" stroke="#8C4647" stroke-width="13" stroke-miterlimit="10" d="M294.2,8C136.3,8,8,136.3,8,294.2
				s128.3,286.2,286.2,286.2s286.2-128.3,286.2-286.2S452.7,8,294.2,8z M448.4,267.1v127.7c0,33.3-27.1,59.8-60.5,59.8H196.8
				c-33.3,0-60.5-27.1-60.5-59.8V267.1v-63.5c0-33.3,27.1-60.5,60.5-60.5H388c33.3,0,60.5,27.1,60.5,60.5v63.5H448.4z"/>
			<path fill="none" stroke="#8C4647" stroke-width="13" stroke-miterlimit="10" d="M378.1,299.1c0,46.9-38.2,85.1-85.1,85.1
				s-85.1-38.2-85.1-85.1c0-11.1,2.5-22.2,6.2-32.1h-46.3v127.7c0,16.7,13.6,29.6,29.6,29.6h191.2c16.7,0,29.6-13.6,29.6-29.6V267.1
				h-46.3C375.6,276.9,378.1,287.4,378.1,299.1z"/>
		</g>
	</g>
</g>
</svg>
