<?xml version="1.0" encoding="utf-8"?>
<!-- Generator: Adobe Illustrator 18.0.0, SVG Export Plug-In . SVG Version: 6.00 Build 0)  -->
<!DOCTYPE svg PUBLIC "-//W3C//DTD SVG 1.1//EN" "http://www.w3.org/Graphics/SVG/1.1/DTD/svg11.dtd">
<svg version="1.1" id="Layer_1" xmlns="http://www.w3.org/2000/svg" xmlns:xlink="http://www.w3.org/1999/xlink" x="0px" y="0px"
	 viewBox="206 212 802 790" style="enable-background:new 206 212 802 790;" xml:space="preserve">
<style type="text/css">
	.st0{fill:none;stroke:#A7A7A8;stroke-width:13;stroke-miterlimit:10;}
	.st1{fill:none;stroke:#6D6E70;stroke-width:13;stroke-miterlimit:10;}
</style>
<g>
	<g>
		<path class="st0" d="M616.8,248.3c-203.4,0-367.9,164.6-367.9,367.9s164.4,368,367.9,368s367.9-164.5,367.9-367.9
			C984.7,413.8,819.4,248.3,616.8,248.3z"/>
	</g>
	<g>
		<path class="st1" d="M599.3,231.7c-203.4,0-367.9,164.5-367.9,367.9s164.5,367.9,367.9,367.9s368-164.4,368-367.9
			C968,396.9,802.7,231.7,599.3,231.7z"/>
	</g>
</g>
<path class="st0" d="M399.7,558.7c0,0-41.8,15.9-23.9-41.8c0,0,53.8-59.7,91.6-77.7S561,407.3,580.9,469s17.9,125.5,23.9,151.3
	s13.9,63.7,31.9,71.7c17.9,8,39.8-23.9,39.8-23.9s31.9-29.9,47.8-99.6s-67.7-33.9-67.7-33.9s-8-37.8,21.9-63.7s61.7-45.8,87.6-53.8
	s113.5,6,103.5,81.6c-10,75.7-41.8,155.3-79.7,209.1S682.5,831.5,644.6,849.4c-37.8,17.9-91.6,27.9-131.4-63.7
	c0,0-29.9-147.4-37.8-171.3c-8-23.9-17.9-49.8-27.9-59.7c-10-10-23.9-11.9-35.8-4C399.7,558.7,399.7,558.7,399.7,558.7z"/>
<path class="st1" d="M388.5,539c0,0-41.8,15.9-23.9-41.8c0,0,53.8-59.7,91.6-77.7s93.6-31.9,113.5,29.9s17.9,125.5,23.9,151.3
	c6,25.9,13.9,63.7,31.9,71.7c17.9,8,39.8-23.9,39.8-23.9s31.9-29.9,47.8-99.6s-67.7-33.9-67.7-33.9s-8-37.8,21.9-63.7
	s61.7-45.8,87.6-53.8s113.5,6,103.5,81.6s-41.8,155.3-79.7,209.1C741,742.1,671.3,811.8,633.5,829.8
	c-37.8,17.9-91.6,27.9-131.4-63.7c0,0-29.9-147.4-37.8-171.3c-8-23.9-17.9-49.8-27.9-59.7c-10-10-23.9-11.9-35.8-4
	C388.5,539,388.5,539,388.5,539z"/>
</svg>
