<?xml version="1.0" encoding="utf-8"?>
<!-- Generator: Adobe Illustrator 18.0.0, SVG Export Plug-In . SVG Version: 6.00 Build 0)  -->
<!DOCTYPE svg PUBLIC "-//W3C//DTD SVG 1.1//EN" "http://www.w3.org/Graphics/SVG/1.1/DTD/svg11.dtd">
<svg version="1.1" id="Layer_1" xmlns="http://www.w3.org/2000/svg" xmlns:xlink="http://www.w3.org/1999/xlink" x="0px" y="0px"
	 viewBox="-4 212 800 800" style="enable-background:new -4 212 800 800;" xml:space="preserve">
<style type="text/css">
	.st0{fill:none;stroke:#A7A7A8;stroke-width:13;stroke-miterlimit:10;}
	.st1{fill:none;stroke:#6D6E70;stroke-width:13;stroke-miterlimit:10;}
</style>
<g>
	<g>
		<path class="st0" d="M404.9,248.7C199.4,248.7,33.3,415,33.3,620.3S199.4,992,404.9,992s371.6-166.2,371.6-371.6
			C776.5,415.8,609.5,248.7,404.9,248.7z M502.9,619.6h-64.2c0,102.8,0,229.6,0,229.6h-95.5c0,0,0-125.2,0-229.6h-45.8v-81h45.8v-53
			c0-37.7,17.6-96.3,96.3-96.3H510v78.7c0,0-43.3,0-51.3,0s-20.1,4-20.1,21.6v48.2h73L502.9,619.6z"/>
	</g>
	<g>
		<path class="st1" d="M387.2,231.9c-205.5,0-371.6,166.2-371.6,371.6s166.2,371.6,371.6,371.6S758.9,809,758.9,603.5
			C759.6,398.8,592.7,231.9,387.2,231.9z M485.9,602.8h-64.2c0,102.8,0,229.6,0,229.6h-95.5c0,0,0-125.2,0-229.6h-45.8v-81h45.8
			v-52.1c0-37.7,17.6-96.3,96.3-96.3H493V452c0,0-43.3,0-51.3,0s-20.1,4-20.1,21.6v48.2h73L485.9,602.8z"/>
	</g>
</g>
</svg>
