<?xml version="1.0" encoding="utf-8"?>
<!-- Generator: Adobe Illustrator 18.0.0, SVG Export Plug-In . SVG Version: 6.00 Build 0)  -->
<!DOCTYPE svg PUBLIC "-//W3C//DTD SVG 1.1//EN" "http://www.w3.org/Graphics/SVG/1.1/DTD/svg11.dtd">
<svg version="1.1" id="Layer_1" xmlns="http://www.w3.org/2000/svg" xmlns:xlink="http://www.w3.org/1999/xlink" x="0px" y="0px"
	 viewBox="-5.5 -5.5 611 611" enable-background="new -5.5 -5.5 611 611" xml:space="preserve">
<g>
	<g opacity="0.4">
		<path fill="none" stroke="#A04A39" stroke-width="13" stroke-miterlimit="10" d="M306.5,16C146.5,16,16.9,145.5,16.9,305.5
			S146.5,595,306.5,595S596,465.4,596,305.5C596.6,146.1,466.4,16,306.5,16z M220.9,485.8h-77.5V252.7h77.5V485.8z M181.8,221.2
			L181.8,221.2c-26.6,0-43.4-18-43.4-40.3c0-22.9,17.3-40.3,44-40.3c26.6,0,42.8,17.3,43.4,40.3
			C225.9,203.1,209.1,221.2,181.8,221.2z M499.8,485.8h-77.5V361.2c0-31-11.2-52.7-39.1-52.7c-21.1,0-34.1,14.3-39.7,28.5
			c-1.9,5-2.4,11.8-2.4,19.2v130.2h-77.5c0,0,1.3-211.4,0-233.1h77.5v32.8c10.6-16.2,28.5-38.4,70-38.4c50.8,0,89.2,33.5,89.2,104.8
			v133.3H499.8z"/>
	</g>
	<g>
		<path fill="none" stroke="#8C4647" stroke-width="13" stroke-miterlimit="10" d="M293.4,2.9C133.5,2.9,3.9,132.5,3.9,292.5
			S133.5,582,293.4,582S583,452.4,583,292.5C583.5,132.5,453.4,2.9,293.4,2.9z M207.8,472.8h-77.5V239.7h77.5L207.8,472.8
			L207.8,472.8z M168.9,208.1L168.9,208.1c-26.6,0-43.4-18-43.4-40.3c0-22.9,17.3-40.3,44-40.3s42.8,17.3,43.4,40.3
			C212.8,190.1,196.1,208.1,168.9,208.1z M486.8,472.8h-77.5V348.2c0-31-11.2-52.7-39.1-52.7c-21.1,0-34.1,14.3-39.7,28.5
			c-1.9,5-2.4,11.8-2.4,19.2v130.2h-77.5c0,0,1.3-211.4,0-233.1h77.5v32.8c10.6-16.2,28.5-38.4,70-38.4c50.8,0,89.2,33.5,89.2,104.8
			v133.3L486.8,472.8L486.8,472.8z"/>
	</g>
</g>
</svg>
