<?xml version="1.0" encoding="utf-8"?>
<!-- Generator: Adobe Illustrator 18.0.0, SVG Export Plug-In . SVG Version: 6.00 Build 0)  -->
<!DOCTYPE svg PUBLIC "-//W3C//DTD SVG 1.1//EN" "http://www.w3.org/Graphics/SVG/1.1/DTD/svg11.dtd">
<svg version="1.1" id="Layer_1" xmlns="http://www.w3.org/2000/svg" xmlns:xlink="http://www.w3.org/1999/xlink" x="0px" y="0px"
	 width="792px" height="1224px" viewBox="0 0 792 1224" enable-background="new 0 0 792 1224" xml:space="preserve">
<g>
	<g>
		<path fill="none" stroke="#A7A7A8" stroke-width="13" stroke-miterlimit="10" d="M398.9,238.4c-207.4,0-375.4,167.9-375.4,375.3
			s168,375.3,375.4,375.3s375.3-168,375.3-375.3C775,407,606.2,238.4,398.9,238.4z M288,847.3H187.5V545.2H288V847.3z M237.3,504.4
			L237.3,504.4c-34.5,0-56.3-23.3-56.3-52.2c0-29.7,22.4-52.2,57-52.2c34.5,0,55.5,22.4,56.3,52.2
			C294.4,480.9,272.7,504.4,237.3,504.4z M649.5,847.3H549V685.8c0-40.2-14.5-68.3-50.7-68.3c-27.4,0-44.2,18.5-51.5,36.9
			c-2.5,6.5-3.1,15.3-3.1,24.9v168.8H343.3c0,0,1.7-274,0-302.2h100.5v42.5c13.7-21,36.9-49.8,90.7-49.8
			c65.8,0,115.6,43.4,115.6,135.8v172.8H649.5z"/>
	</g>
	<g>
		<path fill="none" stroke="#6D6E70" stroke-width="13" stroke-miterlimit="10" d="M381.9,221.4c-207.3,0-375.3,168-375.3,375.4
			S174.7,972,381.9,972s375.4-168,375.4-375.3C758,389.4,589.3,221.4,381.9,221.4z M271,830.5H170.5V528.3H271V830.5L271,830.5z
			 M220.6,487.4L220.6,487.4c-34.5,0-56.3-23.3-56.3-52.2c0-29.7,22.4-52.2,57-52.2s55.5,22.4,56.3,52.2
			C277.5,464,255.8,487.4,220.6,487.4z M632.6,830.5H532.2V669c0-40.2-14.5-68.3-50.7-68.3c-27.4,0-44.2,18.5-51.5,36.9
			c-2.5,6.5-3.1,15.3-3.1,24.9v168.8H326.5c0,0,1.7-274,0-302.2h100.5v42.5c13.7-21,36.9-49.8,90.7-49.8
			c65.8,0,115.6,43.4,115.6,135.8v172.8H632.6L632.6,830.5z"/>
	</g>
</g>
</svg>
