<?xml version="1.0" encoding="utf-8"?>
<!-- Generator: Adobe Illustrator 18.0.0, SVG Export Plug-In . SVG Version: 6.00 Build 0)  -->
<!DOCTYPE svg PUBLIC "-//W3C//DTD SVG 1.1//EN" "http://www.w3.org/Graphics/SVG/1.1/DTD/svg11.dtd">
<svg version="1.1" id="Layer_1" xmlns="http://www.w3.org/2000/svg" xmlns:xlink="http://www.w3.org/1999/xlink" x="0px" y="0px"
	 viewBox="-8.5 209 800 800" style="enable-background:new -8.5 209 800 800;" xml:space="preserve">
<style type="text/css">
	.st0{fill:none;stroke:#A7A7A8;stroke-width:13;stroke-miterlimit:10;}
	.st1{fill:none;stroke:#6D6E70;stroke-width:13;stroke-miterlimit:10;}
</style>
<g>
	<g>
		<path class="st0" d="M548.4,580.2c-48.6,0-55.1,48.6-55.1,48.6h103.1C596.3,628.8,596.3,580.2,548.4,580.2z"/>
		<path class="st0" d="M314.9,628.8h-91.7v83.6h81.1c1.7,0,3.2,0,5.7,0c13,0,37.3-4,37.3-40.6C347.3,628,314.9,628.8,314.9,628.8z"
			/>
		<path class="st0" d="M400,242C192.4,242,24.5,409.9,24.5,617.5S192.4,993,400,993s375.5-167.9,375.5-375.5
			C776.3,410.8,607.5,242,400,242z M479.5,473.1h129V512h-129V473.1z M413.8,675.8c0,95.7-99.7,92.4-99.7,92.4h-91.6H220h-69V454.5
			h69h2.5h91.6c49.5,0,88.4,27.6,88.4,83.5c0,56-47.8,60-47.8,60C418.7,598.1,413.8,675.8,413.8,675.8z M656.3,670.3H494.1
			c0,58.3,55.1,54.3,55.1,54.3c51.8,0,50.3-34.1,50.3-34.1h55.1c0,89.2-107.1,83.5-107.1,83.5c-129,0-120.8-120-120.8-120
			s0-120.8,120.8-120.8C674,534.8,656.3,670.3,656.3,670.3z"/>
		<path class="st0" d="M336.8,542.9c0-32.4-21.9-32.4-21.9-32.4h-11.4H224v69.7h85.9C323.8,580.2,336.8,575.4,336.8,542.9z"/>
	</g>
	<g>
		<g>
			<path class="st1" d="M530.5,563.2c-48.6,0-55.1,48.6-55.1,48.6h103.1C578.4,611.8,579.2,563.2,530.5,563.2z"/>
			<path class="st1" d="M297,611.8h-91.6v83.5h81.1c1.7,0,3.2,0,5.7,0c13,0,37.3-4,37.3-40.6C330.3,611,297,611.8,297,611.8z"/>
			<path class="st1" d="M383,225C175.4,225,7.5,392.9,7.5,600.5S175.4,976,383,976s375.5-167.9,375.5-375.5
				C758.4,393.7,590.6,225,383,225z M462.5,456.1h129V495h-129V456.1z M396.8,658.9c0,95.7-99.7,92.4-99.7,92.4h-91.6H203h-69V437.5
				h69h2.5h91.6c49.5,0,88.4,27.6,88.4,83.5s-47.8,60-47.8,60C400.8,581,396.8,658.9,396.8,658.9z M638.4,653.2H476.2
				c0,58.3,55.1,54.3,55.1,54.3c51.8,0,50.3-34.1,50.3-34.1h55.1c0,89.2-107.1,83.5-107.1,83.5c-129,0-120.8-120-120.8-120
				s0-120.8,120.8-120.8C656.3,516.9,638.4,653.2,638.4,653.2z"/>
			<path class="st1" d="M319.8,525.9c0-32.4-21.9-32.4-21.9-32.4h-11.4H207v69.7h85.9C305.9,563.2,319.8,558.3,319.8,525.9z"/>
		</g>
	</g>
</g>
</svg>
