<?xml version="1.0" encoding="utf-8"?>
<!-- Generator: Adobe Illustrator 18.0.0, SVG Export Plug-In . SVG Version: 6.00 Build 0)  -->
<!DOCTYPE svg PUBLIC "-//W3C//DTD SVG 1.1//EN" "http://www.w3.org/Graphics/SVG/1.1/DTD/svg11.dtd">
<svg version="1.1" id="Layer_1" xmlns="http://www.w3.org/2000/svg" xmlns:xlink="http://www.w3.org/1999/xlink" x="0px" y="0px"
	 viewBox="-2 0 611 611" enable-background="new -2 0 611 611" xml:space="preserve">
<g>
	<g opacity="0.4">
		<path fill="none" stroke="#A04A39" stroke-width="13" stroke-miterlimit="10" d="M424.8,282.5c-37.5,0-42.5,37.5-42.5,37.5h79.5
			C461.7,320,461.7,282.5,424.8,282.5z"/>
		<path fill="none" stroke="#A04A39" stroke-width="13" stroke-miterlimit="10" d="M244.6,320h-70.7v64.5h62.6c1.3,0,2.5,0,4.4,0
			c10,0,28.8-3.1,28.8-31.3C269.6,319.4,244.6,320,244.6,320z"/>
		<path fill="none" stroke="#A04A39" stroke-width="13" stroke-miterlimit="10" d="M310.3,21.6c-160.2,0-289.7,129.5-289.7,289.7
			S150.1,601,310.3,601S600,471.5,600,311.3C600.6,151.8,470.4,21.6,310.3,21.6z M371.6,199.9h99.5v30h-99.5V199.9z M320.9,356.3
			c0,73.8-76.9,71.3-76.9,71.3h-70.7h-1.9h-53.2V185.5h53.2h1.9H244c38.2,0,68.2,21.3,68.2,64.4c0,43.2-36.9,46.3-36.9,46.3
			C324.7,296.3,320.9,356.3,320.9,356.3z M508,352H382.9c0,45,42.5,41.9,42.5,41.9c40,0,38.8-26.3,38.8-26.3h42.5
			c0,68.8-82.6,64.4-82.6,64.4c-99.5,0-93.2-92.6-93.2-92.6s0-93.2,93.2-93.2C521.7,247.5,508,352,508,352z"/>
		<path fill="none" stroke="#A04A39" stroke-width="13" stroke-miterlimit="10" d="M261.5,253.7c0-25-16.9-25-16.9-25h-8.8h-61.3
			v53.8h66.3C251.5,282.5,261.5,278.8,261.5,253.7z"/>
	</g>
	<g>
		<g>
			<path fill="none" stroke="#8C4647" stroke-width="13" stroke-miterlimit="10" d="M411,269.4c-37.5,0-42.5,37.5-42.5,37.5H448
				C447.9,306.9,448.5,269.4,411,269.4z"/>
			<path fill="none" stroke="#8C4647" stroke-width="13" stroke-miterlimit="10" d="M230.8,306.9h-70.7v64.4h62.6c1.3,0,2.5,0,4.4,0
				c10,0,28.8-3.1,28.8-31.3C256.5,306.3,230.8,306.9,230.8,306.9z"/>
			<path fill="none" stroke="#8C4647" stroke-width="13" stroke-miterlimit="10" d="M297.2,8.5C137,8.5,7.5,138,7.5,298.2
				S137,587.9,297.2,587.9s289.7-129.5,289.7-289.7C586.8,138.6,457.3,8.5,297.2,8.5z M358.5,186.8H458v30h-99.5V186.8z
				 M307.8,343.2c0,73.8-76.9,71.3-76.9,71.3h-70.7h-1.9h-53.2V172.4h53.2h1.9h70.7c38.2,0,68.2,21.3,68.2,64.4
				s-36.9,46.3-36.9,46.3C310.9,283.1,307.8,343.2,307.8,343.2z M494.2,338.8H369.1c0,45,42.5,41.9,42.5,41.9
				c40,0,38.8-26.3,38.8-26.3h42.5c0,68.8-82.6,64.4-82.6,64.4c-99.5,0-93.2-92.6-93.2-92.6s0-93.2,93.2-93.2
				C508,233.7,494.2,338.8,494.2,338.8z"/>
			<path fill="none" stroke="#8C4647" stroke-width="13" stroke-miterlimit="10" d="M248.4,240.6c0-25-16.9-25-16.9-25h-8.8h-61.3
				v53.8h66.3C237.7,269.4,248.4,265.6,248.4,240.6z"/>
		</g>
	</g>
</g>
</svg>
