<?xml version="1.0" encoding="utf-8"?>
<!-- Generator: Adobe Illustrator 18.0.0, SVG Export Plug-In . SVG Version: 6.00 Build 0)  -->
<!DOCTYPE svg PUBLIC "-//W3C//DTD SVG 1.1//EN" "http://www.w3.org/Graphics/SVG/1.1/DTD/svg11.dtd">
<svg version="1.1" id="Layer_1" xmlns="http://www.w3.org/2000/svg" xmlns:xlink="http://www.w3.org/1999/xlink" x="0px" y="0px"
	 viewBox="-5.5 -5.5 611 611" enable-background="new -5.5 -5.5 611 611" xml:space="preserve">
<g>
	<g opacity="0.4">
		<path fill="none" stroke="#A04A39" stroke-width="13" stroke-miterlimit="10" d="M307.3,17.6c-158.5,0-286.7,128.2-286.7,286.7
			S148.8,591,307.3,591S594,462.8,594,304.3C594,146.4,465.2,17.6,307.3,17.6z M382.9,303.7h-49.5c0,79.3,0,177.1,0,177.1h-73.7
			c0,0,0-96.6,0-177.1h-35.3v-62.5h35.3v-40.9c0-29.1,13.6-74.3,74.3-74.3h54.5v60.7c0,0-33.4,0-39.6,0s-15.5,3.1-15.5,16.7v37.2
			h56.3L382.9,303.7z"/>
	</g>
	<g>
		<path fill="none" stroke="#8C4647" stroke-width="13" stroke-miterlimit="10" d="M293.7,4.6C135.2,4.6,7,132.8,7,291.3
			S135.2,578,293.7,578s286.7-128.2,286.7-286.7C581,133.4,452.2,4.6,293.7,4.6z M369.8,290.7h-49.5c0,79.3,0,177.1,0,177.1h-73.7
			c0,0,0-96.6,0-177.1h-35.3v-62.5h35.3V188c0-29.1,13.6-74.3,74.3-74.3h54.5v60.7c0,0-33.4,0-39.6,0s-15.5,3.1-15.5,16.7v37.2h56.3
			L369.8,290.7z"/>
	</g>
</g>
</svg>
