<?xml version="1.0" encoding="utf-8"?>
<!-- Generator: Adobe Illustrator 18.0.0, SVG Export Plug-In . SVG Version: 6.00 Build 0)  -->
<!DOCTYPE svg PUBLIC "-//W3C//DTD SVG 1.1//EN" "http://www.w3.org/Graphics/SVG/1.1/DTD/svg11.dtd">
<svg version="1.1" id="Layer_1" xmlns="http://www.w3.org/2000/svg" xmlns:xlink="http://www.w3.org/1999/xlink" x="0px" y="0px"
	 viewBox="-4 212 800 800" style="enable-background:new -4 212 800 800;" xml:space="preserve">
<style type="text/css">
	.st0{fill:none;stroke:#A7A7A8;stroke-width:13;stroke-miterlimit:10;}
	.st1{fill:none;stroke:#6D6E70;stroke-width:13;stroke-miterlimit:10;}
</style>
<g>
	<g>
		<path class="st0" d="M404.5,245.2c-207.4,0-375.4,167.9-375.4,375.3s168,375.3,375.4,375.3s375.3-168,375.3-375.3
			C780.6,413.8,611.8,245.2,404.5,245.2z M293.6,854.1H193.1V552h100.5V854.1z M242.9,511.2L242.9,511.2
			c-34.5,0-56.3-23.3-56.3-52.2c0-29.7,22.4-52.2,57-52.2c34.5,0,55.5,22.4,56.3,52.2C300,487.7,278.3,511.2,242.9,511.2z
			 M655.1,854.1H554.6V692.6c0-40.2-14.5-68.3-50.7-68.3c-27.4,0-44.2,18.5-51.5,36.9c-2.5,6.5-3.1,15.3-3.1,24.9v168.8H348.9
			c0,0,1.7-274,0-302.2h100.5v42.5c13.7-21,36.9-49.8,90.7-49.8c65.8,0,115.6,43.4,115.6,135.8V854L655.1,854.1L655.1,854.1z"/>
	</g>
	<g>
		<path class="st1" d="M387.5,228.2c-207.3,0-375.3,168-375.3,375.4s168.1,375.2,375.3,375.2s375.4-168,375.4-375.3
			C763.6,396.2,594.9,228.2,387.5,228.2z M276.6,837.3H176.1V535.1h100.5V837.3L276.6,837.3z M226.2,494.2L226.2,494.2
			c-34.5,0-56.3-23.3-56.3-52.2c0-29.7,22.4-52.2,57-52.2s55.5,22.4,56.3,52.2C283.1,470.8,261.4,494.2,226.2,494.2z M638.2,837.3
			H537.8V675.8c0-40.2-14.5-68.3-50.7-68.3c-27.4,0-44.2,18.5-51.5,36.9c-2.5,6.5-3.1,15.3-3.1,24.9v168.8H332.1
			c0,0,1.7-274,0-302.2h100.5v42.5c13.7-21,36.9-49.8,90.7-49.8c65.8,0,115.6,43.4,115.6,135.8v172.8L638.2,837.3L638.2,837.3z"/>
	</g>
</g>
</svg>
