<?xml version="1.0" encoding="utf-8"?>
<!-- Generator: Adobe Illustrator 18.0.0, SVG Export Plug-In . SVG Version: 6.00 Build 0)  -->
<!DOCTYPE svg PUBLIC "-//W3C//DTD SVG 1.1//EN" "http://www.w3.org/Graphics/SVG/1.1/DTD/svg11.dtd">
<svg version="1.1" id="Layer_1" xmlns="http://www.w3.org/2000/svg" xmlns:xlink="http://www.w3.org/1999/xlink" x="0px" y="0px"
	 viewBox="-4 212 800 800" style="enable-background:new -4 212 800 800;" xml:space="preserve">
<style type="text/css">
	.st0{fill:none;stroke:#A7A7A8;stroke-width:13;stroke-miterlimit:10;}
	.st1{fill:none;stroke:#6D6E70;stroke-width:13;stroke-miterlimit:10;}
</style>
<g>
	<g>
		<polygon class="st0" points="557.5,539.3 557.5,480 557.5,471.2 548.7,471.2 489.6,471.2 489.6,539.3 		"/>
		<path class="st0" d="M402.3,697.5c39.1,0,71.2-32,71.2-71.2c0-15.2-4.8-29.6-13.6-41.6c-12.8-17.6-33.6-29.6-57.6-29.6
			s-44.7,12.1-57.6,29.6c-8.8,12.1-13.6,25.5-13.6,41.6C331.2,665.5,363.2,697.5,402.3,697.5z"/>
		<path class="st0" d="M404.8,249.8c-204.7,0-371,166.3-371,371s166.3,371,371,371s371-166.3,371-371
			C775.8,415.4,609.5,249.8,404.8,249.8z M603.9,584.8v165.5c0,43.2-35.1,77.5-78.4,77.5H277.6c-43.2,0-78.4-35.1-78.4-77.5V584.8
			v-82.3c0-43.2,35.1-78.4,78.4-78.4h247.8c43.2,0,78.4,35.1,78.4,78.4L603.9,584.8L603.9,584.8z"/>
		<path class="st0" d="M512.8,626.4c0,60.8-49.5,110.3-110.3,110.3s-110.3-49.5-110.3-110.3c0-14.4,3.2-28.8,8-41.6h-60v165.5
			c0,21.6,17.6,38.4,38.4,38.4h247.8c21.6,0,38.4-17.6,38.4-38.4V584.8h-60C509.5,597.6,512.8,611.2,512.8,626.4z"/>
	</g>
	<g>
		<g>
			<polygon class="st1" points="540.7,522.4 540.7,462.5 540.7,453.7 532,453.7 472,454.5 472.7,522.4 			"/>
			<path class="st1" d="M385.6,679.9c39.1,0,71.2-32,71.2-71.2c0-15.2-4.8-29.6-13.6-41.6c-12.8-17.6-33.6-29.6-57.6-29.6
				s-44.7,12.1-57.6,29.6c-8.8,12.1-13.6,25.5-13.6,41.6C314.5,648,346.5,679.9,385.6,679.9z"/>
			<path class="st1" d="M387.2,232.2c-204.7,0-371,166.3-371,371s166.3,371,371,371s371-166.3,371-371S592.6,232.2,387.2,232.2z
				 M587.1,568.1v165.5c0,43.2-35.1,77.5-78.4,77.5H260.9c-43.2,0-78.4-35.1-78.4-77.5V568.1v-82.3c0-43.2,35.1-78.4,78.4-78.4
				h247.8c43.2,0,78.4,35.1,78.4,78.4V568.1L587.1,568.1z"/>
			<path class="st1" d="M495.9,609.5c0,60.8-49.5,110.3-110.3,110.3s-110.3-49.5-110.3-110.3c0-14.4,3.2-28.8,8-41.6h-60v165.5
				c0,21.6,17.6,38.4,38.4,38.4h247.8c21.6,0,38.4-17.6,38.4-38.4V568.1h-60C492.7,580.8,495.9,594.4,495.9,609.5z"/>
		</g>
	</g>
</g>
</svg>
